<?xml version="1.0" encoding="UTF-8" standalone="no"?>
<!DOCTYPE svg PUBLIC "-//W3C//DTD SVG 1.1//EN"
 "http://www.w3.org/Graphics/SVG/1.1/DTD/svg11.dtd">
<!-- Generated by graphviz version 2.40.1 (20161225.0304)
 -->
<!-- Title: %3 Pages: 1 -->
<svg width="276pt" height="476pt"
 viewBox="0.00 0.00 276.27 476.00" xmlns="http://www.w3.org/2000/svg" xmlns:xlink="http://www.w3.org/1999/xlink">
<g id="graph0" class="graph" transform="scale(1 1) rotate(0) translate(4 472)">
<title>%3</title>
<polygon fill="#ffffff" stroke="transparent" points="-4,4 -4,-472 272.2699,-472 272.2699,4 -4,4"/>
<!-- run -->
<g id="node1" class="node">
<title>run</title>
<ellipse fill="none" stroke="#000000" cx="83.774" cy="-450" rx="27" ry="18"/>
<text text-anchor="middle" x="83.774" y="-445.8" font-family="Times,serif" font-size="14.00" fill="#000000">run</text>
</g>
<!-- intr -->
<g id="node2" class="node">
<title>intr</title>
<ellipse fill="none" stroke="#000000" cx="28.774" cy="-378" rx="27" ry="18"/>
<text text-anchor="middle" x="28.774" y="-373.8" font-family="Times,serif" font-size="14.00" fill="#000000">intr</text>
</g>
<!-- run&#45;&#45;intr -->
<g id="edge1" class="edge">
<title>run&#45;&#45;intr</title>
<path fill="none" stroke="#000000" d="M71.2936,-433.6621C62.2925,-421.8788 50.1946,-406.0416 41.2049,-394.2733"/>
</g>
<!-- kernel -->
<g id="node4" class="node">
<title>kernel</title>
<ellipse fill="none" stroke="#000000" cx="168.774" cy="-378" rx="32.4063" ry="18"/>
<text text-anchor="middle" x="168.774" y="-373.8" font-family="Times,serif" font-size="14.00" fill="#000000">kernel</text>
</g>
<!-- run&#45;&#45;kernel -->
<g id="edge4" class="edge">
<title>run&#45;&#45;kernel</title>
<path fill="none" stroke="#000000" d="M100.5672,-435.7751C115.0818,-423.4804 136.0041,-405.758 150.8418,-393.1896"/>
</g>
<!-- runbl -->
<g id="node3" class="node">
<title>runbl</title>
<ellipse fill="none" stroke="#000000" cx="28.774" cy="-306" rx="28.5497" ry="18"/>
<text text-anchor="middle" x="28.774" y="-301.8" font-family="Times,serif" font-size="14.00" fill="#000000">runbl</text>
</g>
<!-- intr&#45;&#45;runbl -->
<g id="edge2" class="edge">
<title>intr&#45;&#45;runbl</title>
<path fill="none" stroke="#000000" d="M28.774,-359.8314C28.774,-349 28.774,-335.2876 28.774,-324.4133"/>
</g>
<!-- runbl&#45;&#45;run -->
<g id="edge3" class="edge">
<title>runbl&#45;&#45;run</title>
<path fill="none" stroke="#000000" d="M41.8729,-322.0847C49.618,-332.3613 59.0092,-346.2898 64.774,-360 74.7395,-383.7008 79.6852,-413.1875 81.9835,-431.8083"/>
</g>
<!-- zombie -->
<g id="node5" class="node">
<title>zombie</title>
<ellipse fill="none" stroke="#000000" cx="111.774" cy="-306" rx="36.2732" ry="18"/>
<text text-anchor="middle" x="111.774" y="-301.8" font-family="Times,serif" font-size="14.00" fill="#000000">zombie</text>
</g>
<!-- kernel&#45;&#45;zombie -->
<g id="edge5" class="edge">
<title>kernel&#45;&#45;zombie</title>
<path fill="none" stroke="#000000" d="M155.5537,-361.3008C146.4768,-349.8352 134.464,-334.6612 125.3183,-323.1086"/>
</g>
<!-- sleep -->
<g id="node6" class="node">
<title>sleep</title>
<ellipse fill="none" stroke="#000000" cx="193.774" cy="-306" rx="28.0565" ry="18"/>
<text text-anchor="middle" x="193.774" y="-301.8" font-family="Times,serif" font-size="14.00" fill="#000000">sleep</text>
</g>
<!-- kernel&#45;&#45;sleep -->
<g id="edge6" class="edge">
<title>kernel&#45;&#45;sleep</title>
<path fill="none" stroke="#000000" d="M174.9537,-360.2022C178.8289,-349.0419 183.8037,-334.7143 187.6653,-323.593"/>
</g>
<!-- runmem -->
<g id="node7" class="node">
<title>runmem</title>
<ellipse fill="none" stroke="#000000" cx="184.774" cy="-18" rx="39.6558" ry="18"/>
<text text-anchor="middle" x="184.774" y="-13.8" font-family="Times,serif" font-size="14.00" fill="#000000">runmem</text>
</g>
<!-- kernel&#45;&#45;runmem -->
<g id="edge7" class="edge">
<title>kernel&#45;&#45;runmem</title>
<path fill="none" stroke="#000000" d="M189.4138,-363.9268C202.6695,-354.0297 219.4604,-339.7754 230.774,-324 255.9784,-288.8552 267.774,-277.2483 267.774,-234 267.774,-234 267.774,-234 267.774,-162 267.774,-121.1184 269.7576,-107.0856 248.774,-72 238.9988,-55.6556 222.4692,-41.8984 208.6575,-32.3605"/>
</g>
<!-- sleep&#45;&#45;runmem -->
<g id="edge13" class="edge">
<title>sleep&#45;&#45;runmem</title>
<path fill="none" stroke="#000000" d="M180.086,-290.0592C172.041,-279.8368 162.379,-265.9147 156.774,-252 144.6525,-221.9082 147.4497,-212.3309 144.774,-180 143.4543,-164.0545 142.3245,-159.8114 144.774,-144 150.9228,-104.3095 167.3571,-60.0035 177.1413,-35.9396"/>
</g>
<!-- swap -->
<g id="node8" class="node">
<title>swap</title>
<ellipse fill="none" stroke="#000000" cx="193.774" cy="-234" rx="28.0651" ry="18"/>
<text text-anchor="middle" x="193.774" y="-229.8" font-family="Times,serif" font-size="14.00" fill="#000000">swap</text>
</g>
<!-- sleep&#45;&#45;swap -->
<g id="edge8" class="edge">
<title>sleep&#45;&#45;swap</title>
<path fill="none" stroke="#000000" d="M193.774,-287.8314C193.774,-277 193.774,-263.2876 193.774,-252.4133"/>
</g>
<!-- runswap -->
<g id="node9" class="node">
<title>runswap</title>
<ellipse fill="none" stroke="#000000" cx="193.774" cy="-162" rx="40.1403" ry="18"/>
<text text-anchor="middle" x="193.774" y="-157.8" font-family="Times,serif" font-size="14.00" fill="#000000">runswap</text>
</g>
<!-- swap&#45;&#45;runswap -->
<g id="edge9" class="edge">
<title>swap&#45;&#45;runswap</title>
<path fill="none" stroke="#000000" d="M193.774,-215.8314C193.774,-205 193.774,-191.2876 193.774,-180.4133"/>
</g>
<!-- runswap&#45;&#45;runmem -->
<g id="edge11" class="edge">
<title>runswap&#45;&#45;runmem</title>
<path fill="none" stroke="#000000" d="M186.5301,-143.8366C182.8028,-133.513 178.6552,-120.2403 176.774,-108 172.9613,-83.1927 177.0395,-54.2383 180.6343,-36.011"/>
</g>
<!-- new -->
<g id="node10" class="node">
<title>new</title>
<ellipse fill="none" stroke="#000000" cx="212.774" cy="-90" rx="27" ry="18"/>
<text text-anchor="middle" x="212.774" y="-85.8" font-family="Times,serif" font-size="14.00" fill="#000000">new</text>
</g>
<!-- runswap&#45;&#45;new -->
<g id="edge10" class="edge">
<title>runswap&#45;&#45;new</title>
<path fill="none" stroke="#000000" d="M198.5685,-143.8314C201.4707,-132.8334 205.1568,-118.865 208.0468,-107.9134"/>
</g>
<!-- new&#45;&#45;runmem -->
<g id="edge12" class="edge">
<title>new&#45;&#45;runmem</title>
<path fill="none" stroke="#000000" d="M205.9959,-72.5708C201.6584,-61.4171 196.0472,-46.9882 191.6841,-35.7689"/>
</g>
</g>
</svg>
