<?xml version="1.0" encoding="UTF-8" standalone="no"?>
<!DOCTYPE svg PUBLIC "-//W3C//DTD SVG 1.1//EN"
 "http://www.w3.org/Graphics/SVG/1.1/DTD/svg11.dtd">
<!-- Generated by graphviz version 2.40.1 (20161225.0304)
 -->
<!-- Title: %3 Pages: 1 -->
<svg width="576pt" height="248pt"
 viewBox="0.00 0.00 576.00 248.40" xmlns="http://www.w3.org/2000/svg" xmlns:xlink="http://www.w3.org/1999/xlink">
<g id="graph0" class="graph" transform="scale(.7099 .7099) rotate(0) translate(4 345.8939)">
<title>%3</title>
<polygon fill="#ffffff" stroke="transparent" points="-4,4 -4,-345.8939 807.3633,-345.8939 807.3633,4 -4,4"/>
<!-- LR_0 -->
<g id="node1" class="node">
<title>LR_0</title>
<ellipse fill="none" stroke="#000000" cx="38.4469" cy="-88.4469" rx="34.3995" ry="34.3995"/>
<ellipse fill="none" stroke="#000000" cx="38.4469" cy="-88.4469" rx="38.394" ry="38.394"/>
<text text-anchor="middle" x="38.4469" y="-84.7469" font-family="Times,serif" font-size="14.00" fill="#000000">LR_0</text>
</g>
<!-- LR_2 -->
<g id="node5" class="node">
<title>LR_2</title>
<ellipse fill="none" stroke="#000000" cx="188.3408" cy="-159.4469" rx="34.394" ry="34.394"/>
<text text-anchor="middle" x="188.3408" y="-155.7469" font-family="Times,serif" font-size="14.00" fill="#000000">LR_2</text>
</g>
<!-- LR_0&#45;&gt;LR_2 -->
<g id="edge1" class="edge">
<title>LR_0&#45;&gt;LR_2</title>
<path fill="none" stroke="#000000" d="M73.2124,-104.9142C95.4839,-115.4635 124.4765,-129.1964 147.795,-140.2417"/>
<polygon fill="#000000" stroke="#000000" points="146.5421,-143.5209 157.0778,-144.6386 149.5387,-137.1947 146.5421,-143.5209"/>
<text text-anchor="middle" x="115.3939" y="-138.2469" font-family="Times,serif" font-size="14.00" fill="#000000">SS(B)</text>
</g>
<!-- LR_1 -->
<g id="node6" class="node">
<title>LR_1</title>
<ellipse fill="none" stroke="#000000" cx="188.3408" cy="-45.4469" rx="34.394" ry="34.394"/>
<text text-anchor="middle" x="188.3408" y="-41.7469" font-family="Times,serif" font-size="14.00" fill="#000000">LR_1</text>
</g>
<!-- LR_0&#45;&gt;LR_1 -->
<g id="edge2" class="edge">
<title>LR_0&#45;&gt;LR_1</title>
<path fill="none" stroke="#000000" d="M75.4994,-77.8177C96.6252,-71.7574 123.2023,-64.1332 145.2564,-57.8066"/>
<polygon fill="#000000" stroke="#000000" points="146.3881,-61.1232 155.0353,-55.0013 144.4578,-54.3945 146.3881,-61.1232"/>
<text text-anchor="middle" x="115.3939" y="-76.2469" font-family="Times,serif" font-size="14.00" fill="#000000">SS(S)</text>
</g>
<!-- LR_3 -->
<g id="node2" class="node">
<title>LR_3</title>
<ellipse fill="none" stroke="#000000" cx="353.2347" cy="-38.4469" rx="34.3995" ry="34.3995"/>
<ellipse fill="none" stroke="#000000" cx="353.2347" cy="-38.4469" rx="38.394" ry="38.394"/>
<text text-anchor="middle" x="353.2347" y="-34.7469" font-family="Times,serif" font-size="14.00" fill="#000000">LR_3</text>
</g>
<!-- LR_4 -->
<g id="node3" class="node">
<title>LR_4</title>
<ellipse fill="none" stroke="#000000" cx="353.2347" cy="-303.4469" rx="34.3995" ry="34.3995"/>
<ellipse fill="none" stroke="#000000" cx="353.2347" cy="-303.4469" rx="38.394" ry="38.394"/>
<text text-anchor="middle" x="353.2347" y="-299.7469" font-family="Times,serif" font-size="14.00" fill="#000000">LR_4</text>
</g>
<!-- LR_8 -->
<g id="node4" class="node">
<title>LR_8</title>
<ellipse fill="none" stroke="#000000" cx="764.9164" cy="-159.4469" rx="34.3995" ry="34.3995"/>
<ellipse fill="none" stroke="#000000" cx="764.9164" cy="-159.4469" rx="38.394" ry="38.394"/>
<text text-anchor="middle" x="764.9164" y="-155.7469" font-family="Times,serif" font-size="14.00" fill="#000000">LR_8</text>
</g>
<!-- LR_6 -->
<g id="node7" class="node">
<title>LR_6</title>
<ellipse fill="none" stroke="#000000" cx="353.2347" cy="-179.4469" rx="34.394" ry="34.394"/>
<text text-anchor="middle" x="353.2347" y="-175.7469" font-family="Times,serif" font-size="14.00" fill="#000000">LR_6</text>
</g>
<!-- LR_8&#45;&gt;LR_6 -->
<g id="edge13" class="edge">
<title>LR_8&#45;&gt;LR_6</title>
<path fill="none" stroke="#000000" d="M726.9091,-165.4889C679.8084,-172.6439 597.0195,-184.1344 525.5755,-188.4469 495.0117,-190.2918 487.2723,-189.7751 456.6817,-188.4469 437.3205,-187.6063 415.9784,-185.8847 397.7331,-184.1702"/>
<polygon fill="#000000" stroke="#000000" points="397.9588,-180.6757 387.6682,-183.1962 397.2846,-187.6432 397.9588,-180.6757"/>
<text text-anchor="middle" x="558.5755" y="-190.2469" font-family="Times,serif" font-size="14.00" fill="#000000">S(b)</text>
</g>
<!-- LR_5 -->
<g id="node8" class="node">
<title>LR_5</title>
<ellipse fill="none" stroke="#000000" cx="491.1286" cy="-112.4469" rx="34.394" ry="34.394"/>
<text text-anchor="middle" x="491.1286" y="-108.7469" font-family="Times,serif" font-size="14.00" fill="#000000">LR_5</text>
</g>
<!-- LR_8&#45;&gt;LR_5 -->
<g id="edge14" class="edge">
<title>LR_8&#45;&gt;LR_5</title>
<path fill="none" stroke="#000000" d="M726.6271,-153.9547C691.452,-148.7973 637.9082,-140.6643 591.5755,-132.4469 572.9886,-129.1504 552.543,-125.1485 534.9769,-121.5931"/>
<polygon fill="#000000" stroke="#000000" points="535.5004,-118.128 525.0029,-119.5601 534.1023,-124.9869 535.5004,-118.128"/>
<text text-anchor="middle" x="626.0225" y="-147.2469" font-family="Times,serif" font-size="14.00" fill="#000000">S(a)</text>
</g>
<!-- LR_2&#45;&gt;LR_4 -->
<g id="edge6" class="edge">
<title>LR_2&#45;&gt;LR_4</title>
<path fill="none" stroke="#000000" d="M214.4688,-182.2642C242.0117,-206.3171 285.6174,-244.3975 316.5904,-271.4459"/>
<polygon fill="#000000" stroke="#000000" points="314.3408,-274.1281 324.1752,-278.0696 318.9453,-268.8556 314.3408,-274.1281"/>
<text text-anchor="middle" x="268.7878" y="-256.2469" font-family="Times,serif" font-size="14.00" fill="#000000">S(A)</text>
</g>
<!-- LR_2&#45;&gt;LR_6 -->
<g id="edge4" class="edge">
<title>LR_2&#45;&gt;LR_6</title>
<path fill="none" stroke="#000000" d="M222.908,-163.6396C247.9462,-166.6765 282.0002,-170.8069 309.0187,-174.084"/>
<polygon fill="#000000" stroke="#000000" points="308.6472,-177.5645 318.9959,-175.2941 309.4901,-170.6154 308.6472,-177.5645"/>
<text text-anchor="middle" x="268.7878" y="-175.2469" font-family="Times,serif" font-size="14.00" fill="#000000">SS(b)</text>
</g>
<!-- LR_2&#45;&gt;LR_5 -->
<g id="edge5" class="edge">
<title>LR_2&#45;&gt;LR_5</title>
<path fill="none" stroke="#000000" d="M220.8332,-147.3168C246.0707,-138.4771 282.1505,-127.0986 314.7878,-121.4469 359.0488,-113.7825 410.4168,-111.9436 446.2537,-111.7723"/>
<polygon fill="#000000" stroke="#000000" points="446.3926,-115.2723 456.3905,-111.7663 446.3885,-108.2723 446.3926,-115.2723"/>
<text text-anchor="middle" x="353.2347" y="-125.2469" font-family="Times,serif" font-size="14.00" fill="#000000">SS(a)</text>
</g>
<!-- LR_1&#45;&gt;LR_3 -->
<g id="edge3" class="edge">
<title>LR_1&#45;&gt;LR_3</title>
<path fill="none" stroke="#000000" d="M222.908,-43.9795C246.5853,-42.9744 278.325,-41.627 304.5534,-40.5135"/>
<polygon fill="#000000" stroke="#000000" points="304.8328,-44.0049 314.6753,-40.0839 304.5358,-37.0112 304.8328,-44.0049"/>
<text text-anchor="middle" x="268.7878" y="-47.2469" font-family="Times,serif" font-size="14.00" fill="#000000">S($end)</text>
</g>
<!-- LR_6&#45;&gt;LR_6 -->
<g id="edge9" class="edge">
<title>LR_6&#45;&gt;LR_6</title>
<path fill="none" stroke="#000000" d="M340.1169,-211.4545C339.907,-222.7382 344.2796,-231.8939 353.2347,-231.8939 359.2514,-231.8939 363.1995,-227.7609 365.079,-221.6263"/>
<polygon fill="#000000" stroke="#000000" points="368.583,-221.8119 366.3525,-211.4545 361.6372,-220.9422 368.583,-221.8119"/>
<text text-anchor="middle" x="353.2347" y="-235.6939" font-family="Times,serif" font-size="14.00" fill="#000000">S(b)</text>
</g>
<!-- LR_6&#45;&gt;LR_5 -->
<g id="edge10" class="edge">
<title>LR_6&#45;&gt;LR_5</title>
<path fill="none" stroke="#000000" d="M384.525,-164.2436C404.1831,-154.6921 429.7327,-142.278 450.8909,-131.9977"/>
<polygon fill="#000000" stroke="#000000" points="452.4973,-135.1085 459.9622,-127.5901 449.4381,-128.8123 452.4973,-135.1085"/>
<text text-anchor="middle" x="424.1817" y="-155.2469" font-family="Times,serif" font-size="14.00" fill="#000000">S(a)</text>
</g>
<!-- LR_5&#45;&gt;LR_5 -->
<g id="edge8" class="edge">
<title>LR_5&#45;&gt;LR_5</title>
<path fill="none" stroke="#000000" d="M478.7566,-144.7125C478.6257,-155.8774 482.7497,-164.8939 491.1286,-164.8939 496.7582,-164.8939 500.467,-160.8237 502.2551,-154.7664"/>
<polygon fill="#000000" stroke="#000000" points="505.7446,-155.067 503.5006,-144.7125 498.7977,-154.2064 505.7446,-155.067"/>
<text text-anchor="middle" x="491.1286" y="-168.6939" font-family="Times,serif" font-size="14.00" fill="#000000">S(a)</text>
</g>
<!-- LR_7 -->
<g id="node9" class="node">
<title>LR_7</title>
<ellipse fill="none" stroke="#000000" cx="626.0225" cy="-89.4469" rx="34.394" ry="34.394"/>
<text text-anchor="middle" x="626.0225" y="-85.7469" font-family="Times,serif" font-size="14.00" fill="#000000">LR_7</text>
</g>
<!-- LR_5&#45;&gt;LR_7 -->
<g id="edge7" class="edge">
<title>LR_5&#45;&gt;LR_7</title>
<path fill="none" stroke="#000000" d="M525.168,-106.6431C542.4218,-103.7012 563.5777,-100.0941 582.0497,-96.9445"/>
<polygon fill="#000000" stroke="#000000" points="582.7245,-100.38 591.994,-95.249 581.5479,-93.4796 582.7245,-100.38"/>
<text text-anchor="middle" x="558.5755" y="-107.2469" font-family="Times,serif" font-size="14.00" fill="#000000">S(b)</text>
</g>
<!-- LR_7&#45;&gt;LR_8 -->
<g id="edge11" class="edge">
<title>LR_7&#45;&gt;LR_8</title>
<path fill="none" stroke="#000000" d="M657,-104.732C672.4832,-112.4022 691.492,-121.8649 708.4694,-130.4469 712.7313,-132.6013 717.1681,-134.8574 721.5984,-137.1192"/>
<polygon fill="#000000" stroke="#000000" points="720.1286,-140.2987 730.6252,-141.7387 723.3177,-134.0672 720.1286,-140.2987"/>
<text text-anchor="middle" x="693.4694" y="-134.2469" font-family="Times,serif" font-size="14.00" fill="#000000">S(b)</text>
</g>
<!-- LR_7&#45;&gt;LR_5 -->
<g id="edge12" class="edge">
<title>LR_7&#45;&gt;LR_5</title>
<path fill="none" stroke="#000000" d="M592.6491,-80.1131C577.456,-77.3057 559.3781,-76.0067 543.5755,-80.4469 538.2486,-81.9437 532.927,-84.1479 527.8273,-86.7112"/>
<polygon fill="#000000" stroke="#000000" points="525.9854,-83.7304 518.9342,-91.6381 529.3777,-89.8535 525.9854,-83.7304"/>
<text text-anchor="middle" x="558.5755" y="-84.2469" font-family="Times,serif" font-size="14.00" fill="#000000">S(a)</text>
</g>
</g>
</svg>
