<?xml version="1.0" encoding="UTF-8" standalone="no"?>
<!DOCTYPE svg PUBLIC "-//W3C//DTD SVG 1.1//EN"
 "http://www.w3.org/Graphics/SVG/1.1/DTD/svg11.dtd">
<!-- Generated by graphviz version 2.40.1 (20161225.0304)
 -->
<!-- Title: %3 Pages: 1 -->
<svg width="480pt" height="1152pt"
 viewBox="0.00 0.00 479.57 1152.00" xmlns="http://www.w3.org/2000/svg" xmlns:xlink="http://www.w3.org/1999/xlink">
<g id="graph0" class="graph" transform="scale(.8958 .8958) rotate(0) translate(4 1282)">
<title>%3</title>
<polygon fill="#ffffff" stroke="transparent" points="-4,4 -4,-1282 531.3564,-1282 531.3564,4 -4,4"/>
<!-- Addam&#45;Marbrand -->
<g id="node1" class="node">
<title>Addam&#45;Marbrand</title>
<ellipse fill="none" stroke="#000000" cx="141.0375" cy="-747" rx="92.8835" ry="18"/>
<text text-anchor="middle" x="141.0375" y="-743.3" font-family="Times,serif" font-size="14.00" fill="#000000">Addam&#45;Marbrand</text>
</g>
<!-- Brynden&#45;Tully -->
<g id="node2" class="node">
<title>Brynden&#45;Tully</title>
<ellipse fill="none" stroke="#000000" cx="422.7157" cy="-1044" rx="76.0865" ry="18"/>
<text text-anchor="middle" x="422.7157" y="-1040.3" font-family="Times,serif" font-size="14.00" fill="#000000">Brynden&#45;Tully</text>
</g>
<!-- Addam&#45;Marbrand&#45;&#45;Brynden&#45;Tully -->
<g id="edge1" class="edge">
<title>Addam&#45;Marbrand&#45;&#45;Brynden&#45;Tully</title>
<path fill="none" stroke="#000000" d="M147.5105,-765.1091C165.9334,-813.9543 223.5123,-949.2803 318.075,-1017 329.5153,-1025.1928 343.2337,-1030.9026 356.9134,-1034.881"/>
</g>
<!-- Cersei&#45;Lannister -->
<g id="node3" class="node">
<title>Cersei&#45;Lannister</title>
<ellipse fill="none" stroke="#000000" cx="422.7157" cy="-990" rx="89.0842" ry="18"/>
<text text-anchor="middle" x="422.7157" y="-986.3" font-family="Times,serif" font-size="14.00" fill="#000000">Cersei&#45;Lannister</text>
</g>
<!-- Addam&#45;Marbrand&#45;&#45;Cersei&#45;Lannister -->
<g id="edge2" class="edge">
<title>Addam&#45;Marbrand&#45;&#45;Cersei&#45;Lannister</title>
<path fill="none" stroke="#000000" d="M150.4969,-765.0505C173.3341,-806.7884 235.7349,-910.4126 318.075,-963 328.6691,-969.7661 340.8854,-974.8399 353.1491,-978.6439"/>
</g>
<!-- Gyles&#45;Rosby -->
<g id="node4" class="node">
<title>Gyles&#45;Rosby</title>
<ellipse fill="none" stroke="#000000" cx="422.7157" cy="-936" rx="67.6881" ry="18"/>
<text text-anchor="middle" x="422.7157" y="-932.3" font-family="Times,serif" font-size="14.00" fill="#000000">Gyles&#45;Rosby</text>
</g>
<!-- Addam&#45;Marbrand&#45;&#45;Gyles&#45;Rosby -->
<g id="edge3" class="edge">
<title>Addam&#45;Marbrand&#45;&#45;Gyles&#45;Rosby</title>
<path fill="none" stroke="#000000" d="M155.2979,-764.9021C182.9955,-798.4373 247.5711,-870.7764 318.075,-909 332.507,-916.8243 349.2981,-922.4543 365.1495,-926.4758"/>
</g>
<!-- Jaime&#45;Lannister -->
<g id="node5" class="node">
<title>Jaime&#45;Lannister</title>
<ellipse fill="none" stroke="#000000" cx="422.7157" cy="-882" rx="85.2851" ry="18"/>
<text text-anchor="middle" x="422.7157" y="-878.3" font-family="Times,serif" font-size="14.00" fill="#000000">Jaime&#45;Lannister</text>
</g>
<!-- Addam&#45;Marbrand&#45;&#45;Jaime&#45;Lannister -->
<g id="edge4" class="edge">
<title>Addam&#45;Marbrand&#45;&#45;Jaime&#45;Lannister</title>
<path fill="none" stroke="#000000" d="M164.7208,-764.6155C197.5707,-788.2879 259.5488,-830.2456 318.075,-855 331.7259,-860.7738 346.9166,-865.5554 361.3968,-869.4072"/>
</g>
<!-- Jalabhar&#45;Xho -->
<g id="node6" class="node">
<title>Jalabhar&#45;Xho</title>
<ellipse fill="none" stroke="#000000" cx="422.7157" cy="-828" rx="70.3881" ry="18"/>
<text text-anchor="middle" x="422.7157" y="-824.3" font-family="Times,serif" font-size="14.00" fill="#000000">Jalabhar&#45;Xho</text>
</g>
<!-- Addam&#45;Marbrand&#45;&#45;Jalabhar&#45;Xho -->
<g id="edge5" class="edge">
<title>Addam&#45;Marbrand&#45;&#45;Jalabhar&#45;Xho</title>
<path fill="none" stroke="#000000" d="M189.7133,-762.4713C225.1837,-773.5927 274.4602,-788.7277 318.075,-801 335.6839,-805.9548 355.0583,-811.0519 372.2992,-815.4642"/>
</g>
<!-- Joffrey&#45;Baratheon -->
<g id="node7" class="node">
<title>Joffrey&#45;Baratheon</title>
<ellipse fill="none" stroke="#000000" cx="422.7157" cy="-774" rx="92.8835" ry="18"/>
<text text-anchor="middle" x="422.7157" y="-770.3" font-family="Times,serif" font-size="14.00" fill="#000000">Joffrey&#45;Baratheon</text>
</g>
<!-- Addam&#45;Marbrand&#45;&#45;Joffrey&#45;Baratheon -->
<g id="edge6" class="edge">
<title>Addam&#45;Marbrand&#45;&#45;Joffrey&#45;Baratheon</title>
<path fill="none" stroke="#000000" d="M224.4069,-754.9913C260.5835,-758.459 302.8663,-762.5119 339.0734,-765.9825"/>
</g>
<!-- Kevan&#45;Lannister -->
<g id="node8" class="node">
<title>Kevan&#45;Lannister</title>
<ellipse fill="none" stroke="#000000" cx="422.7157" cy="-720" rx="87.1846" ry="18"/>
<text text-anchor="middle" x="422.7157" y="-716.3" font-family="Times,serif" font-size="14.00" fill="#000000">Kevan&#45;Lannister</text>
</g>
<!-- Addam&#45;Marbrand&#45;&#45;Kevan&#45;Lannister -->
<g id="edge7" class="edge">
<title>Addam&#45;Marbrand&#45;&#45;Kevan&#45;Lannister</title>
<path fill="none" stroke="#000000" d="M224.4069,-739.0087C262.0435,-735.4011 306.2892,-731.16 343.4268,-727.6002"/>
</g>
<!-- Lyle&#45;Crakehall -->
<g id="node9" class="node">
<title>Lyle&#45;Crakehall</title>
<ellipse fill="none" stroke="#000000" cx="422.7157" cy="-666" rx="79.0865" ry="18"/>
<text text-anchor="middle" x="422.7157" y="-662.3" font-family="Times,serif" font-size="14.00" fill="#000000">Lyle&#45;Crakehall</text>
</g>
<!-- Addam&#45;Marbrand&#45;&#45;Lyle&#45;Crakehall -->
<g id="edge8" class="edge">
<title>Addam&#45;Marbrand&#45;&#45;Lyle&#45;Crakehall</title>
<path fill="none" stroke="#000000" d="M189.7133,-731.5287C225.1837,-720.4073 274.4602,-705.2723 318.075,-693 334.6003,-688.3501 352.6805,-683.5749 369.0929,-679.358"/>
</g>
<!-- Oberyn&#45;Martell -->
<g id="node10" class="node">
<title>Oberyn&#45;Martell</title>
<ellipse fill="none" stroke="#000000" cx="422.7157" cy="-612" rx="82.5854" ry="18"/>
<text text-anchor="middle" x="422.7157" y="-608.3" font-family="Times,serif" font-size="14.00" fill="#000000">Oberyn&#45;Martell</text>
</g>
<!-- Addam&#45;Marbrand&#45;&#45;Oberyn&#45;Martell -->
<g id="edge9" class="edge">
<title>Addam&#45;Marbrand&#45;&#45;Oberyn&#45;Martell</title>
<path fill="none" stroke="#000000" d="M164.7208,-729.3845C197.5707,-705.7121 259.5488,-663.7544 318.075,-639 331.9851,-633.1165 347.4941,-628.2634 362.2208,-624.3744"/>
</g>
<!-- Tyrion&#45;Lannister -->
<g id="node11" class="node">
<title>Tyrion&#45;Lannister</title>
<ellipse fill="none" stroke="#000000" cx="422.7157" cy="-450" rx="89.0842" ry="18"/>
<text text-anchor="middle" x="422.7157" y="-446.3" font-family="Times,serif" font-size="14.00" fill="#000000">Tyrion&#45;Lannister</text>
</g>
<!-- Addam&#45;Marbrand&#45;&#45;Tyrion&#45;Lannister -->
<g id="edge10" class="edge">
<title>Addam&#45;Marbrand&#45;&#45;Tyrion&#45;Lannister</title>
<path fill="none" stroke="#000000" d="M147.5105,-728.8909C165.9334,-680.0457 223.5123,-544.7197 318.075,-477 327.9899,-469.8996 339.6159,-464.6642 351.4449,-460.8045"/>
</g>
<!-- Tywin&#45;Lannister -->
<g id="node12" class="node">
<title>Tywin&#45;Lannister</title>
<ellipse fill="none" stroke="#000000" cx="422.7157" cy="-558" rx="87.1846" ry="18"/>
<text text-anchor="middle" x="422.7157" y="-554.3" font-family="Times,serif" font-size="14.00" fill="#000000">Tywin&#45;Lannister</text>
</g>
<!-- Addam&#45;Marbrand&#45;&#45;Tywin&#45;Lannister -->
<g id="edge11" class="edge">
<title>Addam&#45;Marbrand&#45;&#45;Tywin&#45;Lannister</title>
<path fill="none" stroke="#000000" d="M155.2979,-729.0979C182.9955,-695.5627 247.5711,-623.2236 318.075,-585 329.9505,-578.5617 343.4233,-573.6092 356.6555,-569.816"/>
</g>
<!-- Varys -->
<g id="node13" class="node">
<title>Varys</title>
<ellipse fill="none" stroke="#000000" cx="422.7157" cy="-504" rx="36.2938" ry="18"/>
<text text-anchor="middle" x="422.7157" y="-500.3" font-family="Times,serif" font-size="14.00" fill="#000000">Varys</text>
</g>
<!-- Addam&#45;Marbrand&#45;&#45;Varys -->
<g id="edge12" class="edge">
<title>Addam&#45;Marbrand&#45;&#45;Varys</title>
<path fill="none" stroke="#000000" d="M150.4969,-728.9495C173.3341,-687.2116 235.7349,-583.5874 318.075,-531 338.6307,-517.8718 365.2936,-511.1144 386.5603,-507.6428"/>
</g>
<!-- Aegon&#45;Frey&#45;(son&#45;of&#45;Stevron) -->
<g id="node14" class="node">
<title>Aegon&#45;Frey&#45;(son&#45;of&#45;Stevron)</title>
<ellipse fill="none" stroke="#000000" cx="141.0375" cy="-1179" rx="141.075" ry="18"/>
<text text-anchor="middle" x="141.0375" y="-1175.3" font-family="Times,serif" font-size="14.00" fill="#000000">Aegon&#45;Frey&#45;(son&#45;of&#45;Stevron)</text>
</g>
<!-- Catelyn&#45;Stark -->
<g id="node15" class="node">
<title>Catelyn&#45;Stark</title>
<ellipse fill="none" stroke="#000000" cx="422.7157" cy="-1260" rx="75.2868" ry="18"/>
<text text-anchor="middle" x="422.7157" y="-1256.3" font-family="Times,serif" font-size="14.00" fill="#000000">Catelyn&#45;Stark</text>
</g>
<!-- Aegon&#45;Frey&#45;(son&#45;of&#45;Stevron)&#45;&#45;Catelyn&#45;Stark -->
<g id="edge13" class="edge">
<title>Aegon&#45;Frey&#45;(son&#45;of&#45;Stevron)&#45;&#45;Catelyn&#45;Stark</title>
<path fill="none" stroke="#000000" d="M193.9259,-1195.7907C229.0194,-1206.7691 276.1615,-1221.2064 318.075,-1233 335.0518,-1237.7769 353.6696,-1242.6861 370.4344,-1246.9864"/>
</g>
<!-- Robb&#45;Stark -->
<g id="node16" class="node">
<title>Robb&#45;Stark</title>
<ellipse fill="none" stroke="#000000" cx="422.7157" cy="-1206" rx="63.8893" ry="18"/>
<text text-anchor="middle" x="422.7157" y="-1202.3" font-family="Times,serif" font-size="14.00" fill="#000000">Robb&#45;Stark</text>
</g>
<!-- Aegon&#45;Frey&#45;(son&#45;of&#45;Stevron)&#45;&#45;Robb&#45;Stark -->
<g id="edge14" class="edge">
<title>Aegon&#45;Frey&#45;(son&#45;of&#45;Stevron)&#45;&#45;Robb&#45;Stark</title>
<path fill="none" stroke="#000000" d="M253.9838,-1189.8264C291.0235,-1193.3768 330.7445,-1197.1842 362.3373,-1200.2125"/>
</g>
<!-- Stevron&#45;Frey -->
<g id="node17" class="node">
<title>Stevron&#45;Frey</title>
<ellipse fill="none" stroke="#000000" cx="422.7157" cy="-1152" rx="71.4873" ry="18"/>
<text text-anchor="middle" x="422.7157" y="-1148.3" font-family="Times,serif" font-size="14.00" fill="#000000">Stevron&#45;Frey</text>
</g>
<!-- Aegon&#45;Frey&#45;(son&#45;of&#45;Stevron)&#45;&#45;Stevron&#45;Frey -->
<g id="edge15" class="edge">
<title>Aegon&#45;Frey&#45;(son&#45;of&#45;Stevron)&#45;&#45;Stevron&#45;Frey</title>
<path fill="none" stroke="#000000" d="M253.9838,-1168.1736C288.4215,-1164.8726 325.1771,-1161.3495 355.5627,-1158.4369"/>
</g>
<!-- Walder&#45;Frey -->
<g id="node18" class="node">
<title>Walder&#45;Frey</title>
<ellipse fill="none" stroke="#000000" cx="422.7157" cy="-1098" rx="67.6881" ry="18"/>
<text text-anchor="middle" x="422.7157" y="-1094.3" font-family="Times,serif" font-size="14.00" fill="#000000">Walder&#45;Frey</text>
</g>
<!-- Aegon&#45;Frey&#45;(son&#45;of&#45;Stevron)&#45;&#45;Walder&#45;Frey -->
<g id="edge16" class="edge">
<title>Aegon&#45;Frey&#45;(son&#45;of&#45;Stevron)&#45;&#45;Walder&#45;Frey</title>
<path fill="none" stroke="#000000" d="M193.9259,-1162.2093C229.0194,-1151.2309 276.1615,-1136.7936 318.075,-1125 335.9548,-1119.969 355.6549,-1114.7913 373.0934,-1110.3327"/>
</g>
<!-- Aegon&#45;I&#45;Targaryen -->
<g id="node19" class="node">
<title>Aegon&#45;I&#45;Targaryen</title>
<ellipse fill="none" stroke="#000000" cx="141.0375" cy="-234" rx="96.6831" ry="18"/>
<text text-anchor="middle" x="141.0375" y="-230.3" font-family="Times,serif" font-size="14.00" fill="#000000">Aegon&#45;I&#45;Targaryen</text>
</g>
<!-- Aegon&#45;I&#45;Targaryen&#45;&#45;Tyrion&#45;Lannister -->
<g id="edge24" class="edge">
<title>Aegon&#45;I&#45;Targaryen&#45;&#45;Tyrion&#45;Lannister</title>
<path fill="none" stroke="#000000" d="M152.5821,-252.0021C177.799,-289.8089 241.7009,-377.7065 318.075,-423 329.2098,-429.6035 341.9441,-434.6087 354.6067,-438.3976"/>
</g>
<!-- Daenerys&#45;Targaryen -->
<g id="node20" class="node">
<title>Daenerys&#45;Targaryen</title>
<ellipse fill="none" stroke="#000000" cx="422.7157" cy="-396" rx="104.7816" ry="18"/>
<text text-anchor="middle" x="422.7157" y="-392.3" font-family="Times,serif" font-size="14.00" fill="#000000">Daenerys&#45;Targaryen</text>
</g>
<!-- Aegon&#45;I&#45;Targaryen&#45;&#45;Daenerys&#45;Targaryen -->
<g id="edge17" class="edge">
<title>Aegon&#45;I&#45;Targaryen&#45;&#45;Daenerys&#45;Targaryen</title>
<path fill="none" stroke="#000000" d="M159.0024,-251.7178C189.2499,-280.5622 253.4016,-337.5994 318.075,-369 329.2142,-374.4084 341.565,-378.8227 353.7622,-382.396"/>
</g>
<!-- Eddard&#45;Stark -->
<g id="node21" class="node">
<title>Eddard&#45;Stark</title>
<ellipse fill="none" stroke="#000000" cx="422.7157" cy="-342" rx="73.387" ry="18"/>
<text text-anchor="middle" x="422.7157" y="-338.3" font-family="Times,serif" font-size="14.00" fill="#000000">Eddard&#45;Stark</text>
</g>
<!-- Aegon&#45;I&#45;Targaryen&#45;&#45;Eddard&#45;Stark -->
<g id="edge18" class="edge">
<title>Aegon&#45;I&#45;Targaryen&#45;&#45;Eddard&#45;Stark</title>
<path fill="none" stroke="#000000" d="M173.5964,-251.0118C208.5752,-268.782 266.1498,-296.5849 318.075,-315 334.0778,-320.6754 351.8435,-325.7123 368.1256,-329.853"/>
</g>
<!-- Harren&#45;Hoare -->
<g id="node22" class="node">
<title>Harren&#45;Hoare</title>
<ellipse fill="none" stroke="#000000" cx="422.7157" cy="-288" rx="76.0865" ry="18"/>
<text text-anchor="middle" x="422.7157" y="-284.3" font-family="Times,serif" font-size="14.00" fill="#000000">Harren&#45;Hoare</text>
</g>
<!-- Aegon&#45;I&#45;Targaryen&#45;&#45;Harren&#45;Hoare -->
<g id="edge19" class="edge">
<title>Aegon&#45;I&#45;Targaryen&#45;&#45;Harren&#45;Hoare</title>
<path fill="none" stroke="#000000" d="M208.5064,-246.9343C255.7062,-255.9829 318.1592,-267.9557 363.444,-276.6371"/>
</g>
<!-- Nan -->
<g id="node23" class="node">
<title>Nan</title>
<ellipse fill="none" stroke="#000000" cx="422.7157" cy="-234" rx="30.5947" ry="18"/>
<text text-anchor="middle" x="422.7157" y="-230.3" font-family="Times,serif" font-size="14.00" fill="#000000">Nan</text>
</g>
<!-- Aegon&#45;I&#45;Targaryen&#45;&#45;Nan -->
<g id="edge20" class="edge">
<title>Aegon&#45;I&#45;Targaryen&#45;&#45;Nan</title>
<path fill="none" stroke="#000000" d="M237.9751,-234C291.7643,-234 355.0461,-234 391.8456,-234"/>
</g>
<!-- Rhaenys&#45;Targaryen -->
<g id="node24" class="node">
<title>Rhaenys&#45;Targaryen</title>
<ellipse fill="none" stroke="#000000" cx="422.7157" cy="-180" rx="100.9827" ry="18"/>
<text text-anchor="middle" x="422.7157" y="-176.3" font-family="Times,serif" font-size="14.00" fill="#000000">Rhaenys&#45;Targaryen</text>
</g>
<!-- Aegon&#45;I&#45;Targaryen&#45;&#45;Rhaenys&#45;Targaryen -->
<g id="edge21" class="edge">
<title>Aegon&#45;I&#45;Targaryen&#45;&#45;Rhaenys&#45;Targaryen</title>
<path fill="none" stroke="#000000" d="M208.5064,-221.0657C252.451,-212.6411 309.6176,-201.6818 353.8404,-193.2039"/>
</g>
<!-- Stannis&#45;Baratheon -->
<g id="node25" class="node">
<title>Stannis&#45;Baratheon</title>
<ellipse fill="none" stroke="#000000" cx="422.7157" cy="-126" rx="96.6831" ry="18"/>
<text text-anchor="middle" x="422.7157" y="-122.3" font-family="Times,serif" font-size="14.00" fill="#000000">Stannis&#45;Baratheon</text>
</g>
<!-- Aegon&#45;I&#45;Targaryen&#45;&#45;Stannis&#45;Baratheon -->
<g id="edge22" class="edge">
<title>Aegon&#45;I&#45;Targaryen&#45;&#45;Stannis&#45;Baratheon</title>
<path fill="none" stroke="#000000" d="M173.5964,-216.9882C208.5752,-199.218 266.1498,-171.4151 318.075,-153 331.7791,-148.1399 346.7759,-143.7479 361.0268,-139.9861"/>
</g>
<!-- Torrhen&#45;Stark -->
<g id="node26" class="node">
<title>Torrhen&#45;Stark</title>
<ellipse fill="none" stroke="#000000" cx="422.7157" cy="-72" rx="76.8869" ry="18"/>
<text text-anchor="middle" x="422.7157" y="-68.3" font-family="Times,serif" font-size="14.00" fill="#000000">Torrhen&#45;Stark</text>
</g>
<!-- Aegon&#45;I&#45;Targaryen&#45;&#45;Torrhen&#45;Stark -->
<g id="edge23" class="edge">
<title>Aegon&#45;I&#45;Targaryen&#45;&#45;Torrhen&#45;Stark</title>
<path fill="none" stroke="#000000" d="M159.0024,-216.2822C189.2499,-187.4378 253.4016,-130.4006 318.075,-99 331.8302,-92.3215 347.4329,-87.1587 362.3125,-83.2236"/>
</g>
<!-- Visenya&#45;Targaryen -->
<g id="node27" class="node">
<title>Visenya&#45;Targaryen</title>
<ellipse fill="none" stroke="#000000" cx="422.7157" cy="-18" rx="97.4827" ry="18"/>
<text text-anchor="middle" x="422.7157" y="-14.3" font-family="Times,serif" font-size="14.00" fill="#000000">Visenya&#45;Targaryen</text>
</g>
<!-- Aegon&#45;I&#45;Targaryen&#45;&#45;Visenya&#45;Targaryen -->
<g id="edge25" class="edge">
<title>Aegon&#45;I&#45;Targaryen&#45;&#45;Visenya&#45;Targaryen</title>
<path fill="none" stroke="#000000" d="M152.5821,-215.9979C177.799,-178.1911 241.7009,-90.2935 318.075,-45 328.4029,-38.875 340.1069,-34.1251 351.8535,-30.4454"/>
</g>
</g>
</svg>
