<?xml version="1.0" encoding="UTF-8" standalone="no"?>
<!DOCTYPE svg PUBLIC "-//W3C//DTD SVG 1.1//EN"
 "http://www.w3.org/Graphics/SVG/1.1/DTD/svg11.dtd">
<!-- Generated by graphviz version 2.40.1 (20161225.0304)
 -->
<!-- Title: %3 Pages: 1 -->
<svg width="392pt" height="1152pt"
 viewBox="0.00 0.00 391.88 1152.00" xmlns="http://www.w3.org/2000/svg" xmlns:xlink="http://www.w3.org/1999/xlink">
<g id="graph0" class="graph" transform="scale(.8958 .8958) rotate(0) translate(4 1282)">
<title>%3</title>
<polygon fill="#ffffff" stroke="transparent" points="-4,4 -4,-1282 433.4578,-1282 433.4578,4 -4,4"/>
<!-- Addam&#45;Marbrand -->
<g id="node1" class="node">
<title>Addam&#45;Marbrand</title>
<ellipse fill="none" stroke="#000000" cx="114.7257" cy="-747" rx="73.9085" ry="18"/>
<text text-anchor="middle" x="114.7257" y="-742.8" font-family="Times,serif" font-size="14.00" fill="#000000">Addam&#45;Marbrand</text>
</g>
<!-- Brynden&#45;Tully -->
<g id="node2" class="node">
<title>Brynden&#45;Tully</title>
<ellipse fill="none" stroke="#000000" cx="347.4546" cy="-1044" rx="62.2206" ry="18"/>
<text text-anchor="middle" x="347.4546" y="-1039.8" font-family="Times,serif" font-size="14.00" fill="#000000">Brynden&#45;Tully</text>
</g>
<!-- Addam&#45;Marbrand&#45;&#45;Brynden&#45;Tully -->
<g id="edge1" class="edge">
<title>Addam&#45;Marbrand&#45;&#45;Brynden&#45;Tully</title>
<path fill="none" stroke="#000000" d="M119.757,-765.1155C134.0903,-813.3934 179.7356,-946.2757 265.4514,-1017 274.3535,-1024.3451 285.3192,-1029.7144 296.3018,-1033.6319"/>
</g>
<!-- Cersei&#45;Lannister -->
<g id="node3" class="node">
<title>Cersei&#45;Lannister</title>
<ellipse fill="none" stroke="#000000" cx="347.4546" cy="-990" rx="69.0805" ry="18"/>
<text text-anchor="middle" x="347.4546" y="-985.8" font-family="Times,serif" font-size="14.00" fill="#000000">Cersei&#45;Lannister</text>
</g>
<!-- Addam&#45;Marbrand&#45;&#45;Cersei&#45;Lannister -->
<g id="edge2" class="edge">
<title>Addam&#45;Marbrand&#45;&#45;Cersei&#45;Lannister</title>
<path fill="none" stroke="#000000" d="M122.3978,-765.0274C140.8515,-806.2631 191.7187,-908.1245 265.4514,-963 274.1086,-969.4431 284.3828,-974.3977 294.6795,-978.1915"/>
</g>
<!-- Gyles&#45;Rosby -->
<g id="node4" class="node">
<title>Gyles&#45;Rosby</title>
<ellipse fill="none" stroke="#000000" cx="347.4546" cy="-936" rx="56.0786" ry="18"/>
<text text-anchor="middle" x="347.4546" y="-931.8" font-family="Times,serif" font-size="14.00" fill="#000000">Gyles&#45;Rosby</text>
</g>
<!-- Addam&#45;Marbrand&#45;&#45;Gyles&#45;Rosby -->
<g id="edge3" class="edge">
<title>Addam&#45;Marbrand&#45;&#45;Gyles&#45;Rosby</title>
<path fill="none" stroke="#000000" d="M126.6316,-764.8524C149.6149,-797.9815 203.3447,-869.213 265.4514,-909 276.4315,-916.0341 289.4195,-921.4056 301.7824,-925.432"/>
</g>
<!-- Jaime&#45;Lannister -->
<g id="node5" class="node">
<title>Jaime&#45;Lannister</title>
<ellipse fill="none" stroke="#000000" cx="347.4546" cy="-882" rx="67.1511" ry="18"/>
<text text-anchor="middle" x="347.4546" y="-877.8" font-family="Times,serif" font-size="14.00" fill="#000000">Jaime&#45;Lannister</text>
</g>
<!-- Addam&#45;Marbrand&#45;&#45;Jaime&#45;Lannister -->
<g id="edge4" class="edge">
<title>Addam&#45;Marbrand&#45;&#45;Jaime&#45;Lannister</title>
<path fill="none" stroke="#000000" d="M134.8843,-764.5328C162.6372,-787.919 214.935,-829.3453 265.4514,-855 276.2762,-860.4973 288.4605,-865.2189 300.0603,-869.1053"/>
</g>
<!-- Jalabhar&#45;Xho -->
<g id="node6" class="node">
<title>Jalabhar&#45;Xho</title>
<ellipse fill="none" stroke="#000000" cx="347.4546" cy="-828" rx="57.6428" ry="18"/>
<text text-anchor="middle" x="347.4546" y="-823.8" font-family="Times,serif" font-size="14.00" fill="#000000">Jalabhar&#45;Xho</text>
</g>
<!-- Addam&#45;Marbrand&#45;&#45;Jalabhar&#45;Xho -->
<g id="edge5" class="edge">
<title>Addam&#45;Marbrand&#45;&#45;Jalabhar&#45;Xho</title>
<path fill="none" stroke="#000000" d="M155.8872,-762.072C186.1293,-773.0663 228.2552,-788.2158 265.4514,-801 279.0591,-805.6769 293.9927,-810.643 307.3442,-815.0237"/>
</g>
<!-- Joffrey&#45;Baratheon -->
<g id="node7" class="node">
<title>Joffrey&#45;Baratheon</title>
<ellipse fill="none" stroke="#000000" cx="347.4546" cy="-774" rx="74.0654" ry="18"/>
<text text-anchor="middle" x="347.4546" y="-769.8" font-family="Times,serif" font-size="14.00" fill="#000000">Joffrey&#45;Baratheon</text>
</g>
<!-- Addam&#45;Marbrand&#45;&#45;Joffrey&#45;Baratheon -->
<g id="edge6" class="edge">
<title>Addam&#45;Marbrand&#45;&#45;Joffrey&#45;Baratheon</title>
<path fill="none" stroke="#000000" d="M181.7283,-754.7733C212.6133,-758.3564 249.1932,-762.6002 280.119,-766.1881"/>
</g>
<!-- Kevan&#45;Lannister -->
<g id="node8" class="node">
<title>Kevan&#45;Lannister</title>
<ellipse fill="none" stroke="#000000" cx="347.4546" cy="-720" rx="69.5564" ry="18"/>
<text text-anchor="middle" x="347.4546" y="-715.8" font-family="Times,serif" font-size="14.00" fill="#000000">Kevan&#45;Lannister</text>
</g>
<!-- Addam&#45;Marbrand&#45;&#45;Kevan&#45;Lannister -->
<g id="edge7" class="edge">
<title>Addam&#45;Marbrand&#45;&#45;Kevan&#45;Lannister</title>
<path fill="none" stroke="#000000" d="M181.7283,-739.2267C213.8219,-735.5034 252.0647,-731.0666 283.7228,-727.3938"/>
</g>
<!-- Lyle&#45;Crakehall -->
<g id="node9" class="node">
<title>Lyle&#45;Crakehall</title>
<ellipse fill="none" stroke="#000000" cx="347.4546" cy="-666" rx="63.301" ry="18"/>
<text text-anchor="middle" x="347.4546" y="-661.8" font-family="Times,serif" font-size="14.00" fill="#000000">Lyle&#45;Crakehall</text>
</g>
<!-- Addam&#45;Marbrand&#45;&#45;Lyle&#45;Crakehall -->
<g id="edge8" class="edge">
<title>Addam&#45;Marbrand&#45;&#45;Lyle&#45;Crakehall</title>
<path fill="none" stroke="#000000" d="M155.8872,-731.928C186.1293,-720.9337 228.2552,-705.7842 265.4514,-693 278.4921,-688.518 292.7506,-683.7703 305.6673,-679.5269"/>
</g>
<!-- Oberyn&#45;Martell -->
<g id="node10" class="node">
<title>Oberyn&#45;Martell</title>
<ellipse fill="none" stroke="#000000" cx="347.4546" cy="-612" rx="65.7062" ry="18"/>
<text text-anchor="middle" x="347.4546" y="-607.8" font-family="Times,serif" font-size="14.00" fill="#000000">Oberyn&#45;Martell</text>
</g>
<!-- Addam&#45;Marbrand&#45;&#45;Oberyn&#45;Martell -->
<g id="edge9" class="edge">
<title>Addam&#45;Marbrand&#45;&#45;Oberyn&#45;Martell</title>
<path fill="none" stroke="#000000" d="M134.8843,-729.4672C162.6372,-706.081 214.935,-664.6547 265.4514,-639 276.4098,-633.4348 288.7615,-628.6646 300.4896,-624.7511"/>
</g>
<!-- Tyrion&#45;Lannister -->
<g id="node11" class="node">
<title>Tyrion&#45;Lannister</title>
<ellipse fill="none" stroke="#000000" cx="347.4546" cy="-450" rx="69.7992" ry="18"/>
<text text-anchor="middle" x="347.4546" y="-445.8" font-family="Times,serif" font-size="14.00" fill="#000000">Tyrion&#45;Lannister</text>
</g>
<!-- Addam&#45;Marbrand&#45;&#45;Tyrion&#45;Lannister -->
<g id="edge10" class="edge">
<title>Addam&#45;Marbrand&#45;&#45;Tyrion&#45;Lannister</title>
<path fill="none" stroke="#000000" d="M119.757,-728.8845C134.0903,-680.6066 179.7356,-547.7243 265.4514,-477 273.5442,-470.3226 283.3425,-465.2782 293.3085,-461.4729"/>
</g>
<!-- Tywin&#45;Lannister -->
<g id="node12" class="node">
<title>Tywin&#45;Lannister</title>
<ellipse fill="none" stroke="#000000" cx="347.4546" cy="-558" rx="68.8387" ry="18"/>
<text text-anchor="middle" x="347.4546" y="-553.8" font-family="Times,serif" font-size="14.00" fill="#000000">Tywin&#45;Lannister</text>
</g>
<!-- Addam&#45;Marbrand&#45;&#45;Tywin&#45;Lannister -->
<g id="edge11" class="edge">
<title>Addam&#45;Marbrand&#45;&#45;Tywin&#45;Lannister</title>
<path fill="none" stroke="#000000" d="M126.6316,-729.1476C149.6149,-696.0185 203.3447,-624.787 265.4514,-585 274.917,-578.9361 285.8748,-574.1079 296.6379,-570.3117"/>
</g>
<!-- Varys -->
<g id="node13" class="node">
<title>Varys</title>
<ellipse fill="none" stroke="#000000" cx="347.4546" cy="-504" rx="30.4949" ry="18"/>
<text text-anchor="middle" x="347.4546" y="-499.8" font-family="Times,serif" font-size="14.00" fill="#000000">Varys</text>
</g>
<!-- Addam&#45;Marbrand&#45;&#45;Varys -->
<g id="edge12" class="edge">
<title>Addam&#45;Marbrand&#45;&#45;Varys</title>
<path fill="none" stroke="#000000" d="M122.3978,-728.9726C140.8515,-687.7369 191.7187,-585.8755 265.4514,-531 280.842,-519.5455 301.3428,-512.7955 317.996,-508.9092"/>
</g>
<!-- Aegon&#45;Frey&#45;(son&#45;of&#45;Stevron) -->
<g id="node14" class="node">
<title>Aegon&#45;Frey&#45;(son&#45;of&#45;Stevron)</title>
<ellipse fill="none" stroke="#000000" cx="114.7257" cy="-1179" rx="114.9519" ry="18"/>
<text text-anchor="middle" x="114.7257" y="-1174.8" font-family="Times,serif" font-size="14.00" fill="#000000">Aegon&#45;Frey&#45;(son&#45;of&#45;Stevron)</text>
</g>
<!-- Catelyn&#45;Stark -->
<g id="node15" class="node">
<title>Catelyn&#45;Stark</title>
<ellipse fill="none" stroke="#000000" cx="347.4546" cy="-1260" rx="59.4512" ry="18"/>
<text text-anchor="middle" x="347.4546" y="-1255.8" font-family="Times,serif" font-size="14.00" fill="#000000">Catelyn&#45;Stark</text>
</g>
<!-- Aegon&#45;Frey&#45;(son&#45;of&#45;Stevron)&#45;&#45;Catelyn&#45;Stark -->
<g id="edge13" class="edge">
<title>Aegon&#45;Frey&#45;(son&#45;of&#45;Stevron)&#45;&#45;Catelyn&#45;Stark</title>
<path fill="none" stroke="#000000" d="M160.1285,-1195.6128C189.9891,-1206.4531 229.9639,-1220.8031 265.4514,-1233 278.7756,-1237.5795 293.3711,-1242.4362 306.5077,-1246.7492"/>
</g>
<!-- Robb&#45;Stark -->
<g id="node16" class="node">
<title>Robb&#45;Stark</title>
<ellipse fill="none" stroke="#000000" cx="347.4546" cy="-1206" rx="50.7655" ry="18"/>
<text text-anchor="middle" x="347.4546" y="-1201.8" font-family="Times,serif" font-size="14.00" fill="#000000">Robb&#45;Stark</text>
</g>
<!-- Aegon&#45;Frey&#45;(son&#45;of&#45;Stevron)&#45;&#45;Robb&#45;Stark -->
<g id="edge14" class="edge">
<title>Aegon&#45;Frey&#45;(son&#45;of&#45;Stevron)&#45;&#45;Robb&#45;Stark</title>
<path fill="none" stroke="#000000" d="M207.0406,-1189.7099C238.5136,-1193.3612 272.4409,-1197.2973 299.0608,-1200.3856"/>
</g>
<!-- Stevron&#45;Frey -->
<g id="node17" class="node">
<title>Stevron&#45;Frey</title>
<ellipse fill="none" stroke="#000000" cx="347.4546" cy="-1152" rx="56.5459" ry="18"/>
<text text-anchor="middle" x="347.4546" y="-1147.8" font-family="Times,serif" font-size="14.00" fill="#000000">Stevron&#45;Frey</text>
</g>
<!-- Aegon&#45;Frey&#45;(son&#45;of&#45;Stevron)&#45;&#45;Stevron&#45;Frey -->
<g id="edge15" class="edge">
<title>Aegon&#45;Frey&#45;(son&#45;of&#45;Stevron)&#45;&#45;Stevron&#45;Frey</title>
<path fill="none" stroke="#000000" d="M207.0406,-1168.2901C236.4831,-1164.8743 268.0734,-1161.2094 293.8199,-1158.2224"/>
</g>
<!-- Walder&#45;Frey -->
<g id="node18" class="node">
<title>Walder&#45;Frey</title>
<ellipse fill="none" stroke="#000000" cx="347.4546" cy="-1098" rx="54.3125" ry="18"/>
<text text-anchor="middle" x="347.4546" y="-1093.8" font-family="Times,serif" font-size="14.00" fill="#000000">Walder&#45;Frey</text>
</g>
<!-- Aegon&#45;Frey&#45;(son&#45;of&#45;Stevron)&#45;&#45;Walder&#45;Frey -->
<g id="edge16" class="edge">
<title>Aegon&#45;Frey&#45;(son&#45;of&#45;Stevron)&#45;&#45;Walder&#45;Frey</title>
<path fill="none" stroke="#000000" d="M160.1285,-1162.3872C189.9891,-1151.5469 229.9639,-1137.1969 265.4514,-1125 279.3426,-1120.2257 294.6155,-1115.1499 308.1766,-1110.7033"/>
</g>
<!-- Aegon&#45;I&#45;Targaryen -->
<g id="node19" class="node">
<title>Aegon&#45;I&#45;Targaryen</title>
<ellipse fill="none" stroke="#000000" cx="114.7257" cy="-234" rx="78.1561" ry="18"/>
<text text-anchor="middle" x="114.7257" y="-229.8" font-family="Times,serif" font-size="14.00" fill="#000000">Aegon&#45;I&#45;Targaryen</text>
</g>
<!-- Aegon&#45;I&#45;Targaryen&#45;&#45;Tyrion&#45;Lannister -->
<g id="edge24" class="edge">
<title>Aegon&#45;I&#45;Targaryen&#45;&#45;Tyrion&#45;Lannister</title>
<path fill="none" stroke="#000000" d="M124.2383,-251.9654C144.9109,-289.3141 197.5811,-375.7829 265.4514,-423 274.4333,-429.2486 284.9607,-434.1291 295.4218,-437.9135"/>
</g>
<!-- Daenerys&#45;Targaryen -->
<g id="node20" class="node">
<title>Daenerys&#45;Targaryen</title>
<ellipse fill="none" stroke="#000000" cx="347.4546" cy="-396" rx="82.0063" ry="18"/>
<text text-anchor="middle" x="347.4546" y="-391.8" font-family="Times,serif" font-size="14.00" fill="#000000">Daenerys&#45;Targaryen</text>
</g>
<!-- Aegon&#45;I&#45;Targaryen&#45;&#45;Daenerys&#45;Targaryen -->
<g id="edge17" class="edge">
<title>Aegon&#45;I&#45;Targaryen&#45;&#45;Daenerys&#45;Targaryen</title>
<path fill="none" stroke="#000000" d="M130.0933,-251.8857C155.5303,-280.4542 209.1903,-336.469 265.4514,-369 274.4046,-374.1768 284.4887,-378.5245 294.4437,-382.1139"/>
</g>
<!-- Eddard&#45;Stark -->
<g id="node21" class="node">
<title>Eddard&#45;Stark</title>
<ellipse fill="none" stroke="#000000" cx="347.4546" cy="-342" rx="57.0133" ry="18"/>
<text text-anchor="middle" x="347.4546" y="-337.8" font-family="Times,serif" font-size="14.00" fill="#000000">Eddard&#45;Stark</text>
</g>
<!-- Aegon&#45;I&#45;Targaryen&#45;&#45;Eddard&#45;Stark -->
<g id="edge18" class="edge">
<title>Aegon&#45;I&#45;Targaryen&#45;&#45;Eddard&#45;Stark</title>
<path fill="none" stroke="#000000" d="M142.6062,-250.9C172.3184,-268.4495 221.0943,-295.9528 265.4514,-315 278.1221,-320.4409 292.2764,-325.4582 305.2117,-329.6536"/>
</g>
<!-- Harren&#45;Hoare -->
<g id="node22" class="node">
<title>Harren&#45;Hoare</title>
<ellipse fill="none" stroke="#000000" cx="347.4546" cy="-288" rx="59.4079" ry="18"/>
<text text-anchor="middle" x="347.4546" y="-283.8" font-family="Times,serif" font-size="14.00" fill="#000000">Harren&#45;Hoare</text>
</g>
<!-- Aegon&#45;I&#45;Targaryen&#45;&#45;Harren&#45;Hoare -->
<g id="edge19" class="edge">
<title>Aegon&#45;I&#45;Targaryen&#45;&#45;Harren&#45;Hoare</title>
<path fill="none" stroke="#000000" d="M169.8792,-246.7972C209.532,-255.9979 262.4415,-268.2745 300.1678,-277.0281"/>
</g>
<!-- Nan -->
<g id="node23" class="node">
<title>Nan</title>
<ellipse fill="none" stroke="#000000" cx="347.4546" cy="-234" rx="27" ry="18"/>
<text text-anchor="middle" x="347.4546" y="-229.8" font-family="Times,serif" font-size="14.00" fill="#000000">Nan</text>
</g>
<!-- Aegon&#45;I&#45;Targaryen&#45;&#45;Nan -->
<g id="edge20" class="edge">
<title>Aegon&#45;I&#45;Targaryen&#45;&#45;Nan</title>
<path fill="none" stroke="#000000" d="M192.8685,-234C236.9736,-234 289.3198,-234 320.386,-234"/>
</g>
<!-- Rhaenys&#45;Targaryen -->
<g id="node24" class="node">
<title>Rhaenys&#45;Targaryen</title>
<ellipse fill="none" stroke="#000000" cx="347.4546" cy="-180" rx="79.1338" ry="18"/>
<text text-anchor="middle" x="347.4546" y="-175.8" font-family="Times,serif" font-size="14.00" fill="#000000">Rhaenys&#45;Targaryen</text>
</g>
<!-- Aegon&#45;I&#45;Targaryen&#45;&#45;Rhaenys&#45;Targaryen -->
<g id="edge21" class="edge">
<title>Aegon&#45;I&#45;Targaryen&#45;&#45;Rhaenys&#45;Targaryen</title>
<path fill="none" stroke="#000000" d="M169.8792,-221.2028C206.7092,-212.6571 254.9758,-201.4578 291.8905,-192.8925"/>
</g>
<!-- Stannis&#45;Baratheon -->
<g id="node25" class="node">
<title>Stannis&#45;Baratheon</title>
<ellipse fill="none" stroke="#000000" cx="347.4546" cy="-126" rx="75.3707" ry="18"/>
<text text-anchor="middle" x="347.4546" y="-121.8" font-family="Times,serif" font-size="14.00" fill="#000000">Stannis&#45;Baratheon</text>
</g>
<!-- Aegon&#45;I&#45;Targaryen&#45;&#45;Stannis&#45;Baratheon -->
<g id="edge22" class="edge">
<title>Aegon&#45;I&#45;Targaryen&#45;&#45;Stannis&#45;Baratheon</title>
<path fill="none" stroke="#000000" d="M142.6062,-217.1C172.3184,-199.5505 221.0943,-172.0472 265.4514,-153 276.4694,-148.2688 288.6092,-143.8579 300.0938,-140.0291"/>
</g>
<!-- Torrhen&#45;Stark -->
<g id="node26" class="node">
<title>Torrhen&#45;Stark</title>
<ellipse fill="none" stroke="#000000" cx="347.4546" cy="-72" rx="59.6673" ry="18"/>
<text text-anchor="middle" x="347.4546" y="-67.8" font-family="Times,serif" font-size="14.00" fill="#000000">Torrhen&#45;Stark</text>
</g>
<!-- Aegon&#45;I&#45;Targaryen&#45;&#45;Torrhen&#45;Stark -->
<g id="edge23" class="edge">
<title>Aegon&#45;I&#45;Targaryen&#45;&#45;Torrhen&#45;Stark</title>
<path fill="none" stroke="#000000" d="M130.0933,-216.1143C155.5303,-187.5458 209.1903,-131.531 265.4514,-99 276.4807,-92.6227 289.2262,-87.5038 301.3324,-83.5106"/>
</g>
<!-- Visenya&#45;Targaryen -->
<g id="node27" class="node">
<title>Visenya&#45;Targaryen</title>
<ellipse fill="none" stroke="#000000" cx="347.4546" cy="-18" rx="77.1266" ry="18"/>
<text text-anchor="middle" x="347.4546" y="-13.8" font-family="Times,serif" font-size="14.00" fill="#000000">Visenya&#45;Targaryen</text>
</g>
<!-- Aegon&#45;I&#45;Targaryen&#45;&#45;Visenya&#45;Targaryen -->
<g id="edge25" class="edge">
<title>Aegon&#45;I&#45;Targaryen&#45;&#45;Visenya&#45;Targaryen</title>
<path fill="none" stroke="#000000" d="M124.2383,-216.0346C144.9109,-178.6859 197.5811,-92.2171 265.4514,-45 273.8181,-39.1794 283.5258,-34.5459 293.2718,-30.8796"/>
</g>
</g>
</svg>
