<?xml version="1.0" encoding="UTF-8" standalone="no"?>
<!DOCTYPE svg PUBLIC "-//W3C//DTD SVG 1.1//EN"
 "http://www.w3.org/Graphics/SVG/1.1/DTD/svg11.dtd">
<!-- Generated by graphviz version 2.40.1 (20161225.0304)
 -->
<!-- Title: %3 Pages: 1 -->
<svg width="576pt" height="257pt"
 viewBox="0.00 0.00 576.00 256.98" xmlns="http://www.w3.org/2000/svg" xmlns:xlink="http://www.w3.org/1999/xlink">
<g id="graph0" class="graph" transform="scale(.7944 .7944) rotate(0) translate(4 319.5015)">
<title>%3</title>
<polygon fill="#ffffff" stroke="transparent" points="-4,4 -4,-319.5015 721.1125,-319.5015 721.1125,4 -4,4"/>
<!-- LR_0 -->
<g id="node1" class="node">
<title>LR_0</title>
<ellipse fill="none" stroke="#000000" cx="34.2507" cy="-80.2507" rx="30.0322" ry="30.0322"/>
<ellipse fill="none" stroke="#000000" cx="34.2507" cy="-80.2507" rx="34.0033" ry="34.0033"/>
<text text-anchor="middle" x="34.2507" y="-76.0507" font-family="Times,serif" font-size="14.00" fill="#000000">LR_0</text>
</g>
<!-- LR_2 -->
<g id="node5" class="node">
<title>LR_2</title>
<ellipse fill="none" stroke="#000000" cx="168.9866" cy="-146.2507" rx="30.0035" ry="30.0035"/>
<text text-anchor="middle" x="168.9866" y="-142.0507" font-family="Times,serif" font-size="14.00" fill="#000000">LR_2</text>
</g>
<!-- LR_0&#45;&gt;LR_2 -->
<g id="edge1" class="edge">
<title>LR_0&#45;&gt;LR_2</title>
<path fill="none" stroke="#000000" d="M65.1619,-95.3925C85.1046,-105.1614 111.1468,-117.9181 132.1602,-128.2114"/>
<polygon fill="#000000" stroke="#000000" points="130.901,-131.4919 141.4211,-132.7479 133.9804,-125.2056 130.901,-131.4919"/>
<text text-anchor="middle" x="103.6187" y="-123.0507" font-family="Times,serif" font-size="14.00" fill="#000000">SS(B)</text>
</g>
<!-- LR_1 -->
<g id="node6" class="node">
<title>LR_1</title>
<ellipse fill="none" stroke="#000000" cx="168.9866" cy="-41.2507" rx="30.0035" ry="30.0035"/>
<text text-anchor="middle" x="168.9866" y="-37.0507" font-family="Times,serif" font-size="14.00" fill="#000000">LR_1</text>
</g>
<!-- LR_0&#45;&gt;LR_1 -->
<g id="edge2" class="edge">
<title>LR_0&#45;&gt;LR_1</title>
<path fill="none" stroke="#000000" d="M67.2109,-70.7103C86.1386,-65.2315 110.0198,-58.319 129.8915,-52.567"/>
<polygon fill="#000000" stroke="#000000" points="130.9444,-55.906 139.577,-49.7635 128.9981,-49.182 130.9444,-55.906"/>
<text text-anchor="middle" x="103.6187" y="-67.0507" font-family="Times,serif" font-size="14.00" fill="#000000">SS(S)</text>
</g>
<!-- LR_3 -->
<g id="node2" class="node">
<title>LR_3</title>
<ellipse fill="none" stroke="#000000" cx="313.8123" cy="-34.2507" rx="30.0322" ry="30.0322"/>
<ellipse fill="none" stroke="#000000" cx="313.8123" cy="-34.2507" rx="34.0033" ry="34.0033"/>
<text text-anchor="middle" x="313.8123" y="-30.0507" font-family="Times,serif" font-size="14.00" fill="#000000">LR_3</text>
</g>
<!-- LR_4 -->
<g id="node3" class="node">
<title>LR_4</title>
<ellipse fill="none" stroke="#000000" cx="313.8123" cy="-281.2507" rx="30.0322" ry="30.0322"/>
<ellipse fill="none" stroke="#000000" cx="313.8123" cy="-281.2507" rx="34.0033" ry="34.0033"/>
<text text-anchor="middle" x="313.8123" y="-277.0507" font-family="Times,serif" font-size="14.00" fill="#000000">LR_4</text>
</g>
<!-- LR_8 -->
<g id="node4" class="node">
<title>LR_8</title>
<ellipse fill="none" stroke="#000000" cx="682.8618" cy="-147.2507" rx="30.0322" ry="30.0322"/>
<ellipse fill="none" stroke="#000000" cx="682.8618" cy="-147.2507" rx="34.0033" ry="34.0033"/>
<text text-anchor="middle" x="682.8618" y="-143.0507" font-family="Times,serif" font-size="14.00" fill="#000000">LR_8</text>
</g>
<!-- LR_6 -->
<g id="node7" class="node">
<title>LR_6</title>
<ellipse fill="none" stroke="#000000" cx="313.8123" cy="-166.2507" rx="30.0035" ry="30.0035"/>
<text text-anchor="middle" x="313.8123" y="-162.0507" font-family="Times,serif" font-size="14.00" fill="#000000">LR_6</text>
</g>
<!-- LR_8&#45;&gt;LR_6 -->
<g id="edge13" class="edge">
<title>LR_8&#45;&gt;LR_6</title>
<path fill="none" stroke="#000000" d="M649.0216,-153.968C597.1434,-163.5227 494.7775,-179.4437 407.3873,-175.2507 390.0029,-174.4167 370.8642,-172.7157 354.4495,-171.0149"/>
<polygon fill="#000000" stroke="#000000" points="354.4178,-167.4916 344.1018,-169.9063 353.6721,-174.4517 354.4178,-167.4916"/>
<text text-anchor="middle" x="497.944" y="-177.0507" font-family="Times,serif" font-size="14.00" fill="#000000">S(b)</text>
</g>
<!-- LR_5 -->
<g id="node8" class="node">
<title>LR_5</title>
<ellipse fill="none" stroke="#000000" cx="437.6381" cy="-104.2507" rx="30.0035" ry="30.0035"/>
<text text-anchor="middle" x="437.6381" y="-100.0507" font-family="Times,serif" font-size="14.00" fill="#000000">LR_5</text>
</g>
<!-- LR_8&#45;&gt;LR_5 -->
<g id="edge14" class="edge">
<title>LR_8&#45;&gt;LR_5</title>
<path fill="none" stroke="#000000" d="M649.0288,-141.5533C609.7702,-134.9091 543.1003,-123.5237 485.8888,-113.2507 483.1905,-112.7662 480.4083,-112.2614 477.606,-111.7489"/>
<polygon fill="#000000" stroke="#000000" points="477.9525,-108.2539 467.4837,-109.8827 476.6833,-115.1379 477.9525,-108.2539"/>
<text text-anchor="middle" x="558.2499" y="-133.0507" font-family="Times,serif" font-size="14.00" fill="#000000">S(a)</text>
</g>
<!-- LR_2&#45;&gt;LR_4 -->
<g id="edge6" class="edge">
<title>LR_2&#45;&gt;LR_4</title>
<path fill="none" stroke="#000000" d="M191.2983,-167.0486C215.232,-189.3586 253.4882,-225.0193 280.8838,-250.5563"/>
<polygon fill="#000000" stroke="#000000" points="278.6005,-253.2126 288.3018,-257.471 283.3735,-248.0922 278.6005,-253.2126"/>
<text text-anchor="middle" x="239.3995" y="-232.0507" font-family="Times,serif" font-size="14.00" fill="#000000">S(A)</text>
</g>
<!-- LR_2&#45;&gt;LR_6 -->
<g id="edge4" class="edge">
<title>LR_2&#45;&gt;LR_6</title>
<path fill="none" stroke="#000000" d="M198.9946,-150.3948C220.6462,-153.3848 250.1073,-157.4533 273.7653,-160.7204"/>
<polygon fill="#000000" stroke="#000000" points="273.458,-164.2111 283.8428,-162.112 274.4156,-157.2769 273.458,-164.2111"/>
<text text-anchor="middle" x="239.3995" y="-161.0507" font-family="Times,serif" font-size="14.00" fill="#000000">SS(b)</text>
</g>
<!-- LR_2&#45;&gt;LR_5 -->
<g id="edge5" class="edge">
<title>LR_2&#45;&gt;LR_5</title>
<path fill="none" stroke="#000000" d="M197.6449,-135.6873C219.7113,-128.0485 251.1459,-118.2295 279.5616,-113.2507 319.0912,-106.3248 364.9462,-104.3714 397.0553,-103.9715"/>
<polygon fill="#000000" stroke="#000000" points="397.4163,-107.4688 407.3885,-103.8905 397.3613,-100.4691 397.4163,-107.4688"/>
<text text-anchor="middle" x="313.8123" y="-116.0507" font-family="Times,serif" font-size="14.00" fill="#000000">SS(a)</text>
</g>
<!-- LR_1&#45;&gt;LR_3 -->
<g id="edge3" class="edge">
<title>LR_1&#45;&gt;LR_3</title>
<path fill="none" stroke="#000000" d="M199.3468,-39.7833C219.6306,-38.8029 246.6512,-37.4969 269.3459,-36.4"/>
<polygon fill="#000000" stroke="#000000" points="269.6097,-39.8914 279.429,-35.9126 269.2716,-32.8996 269.6097,-39.8914"/>
<text text-anchor="middle" x="239.3995" y="-42.0507" font-family="Times,serif" font-size="14.00" fill="#000000">S($end)</text>
</g>
<!-- LR_6&#45;&gt;LR_6 -->
<g id="edge9" class="edge">
<title>LR_6&#45;&gt;LR_6</title>
<path fill="none" stroke="#000000" d="M302.2328,-194.5006C301.7181,-205.4231 305.578,-214.5015 313.8123,-214.5015 319.2161,-214.5015 322.736,-210.5917 324.3719,-204.8168"/>
<polygon fill="#000000" stroke="#000000" points="327.8909,-204.7965 325.3919,-194.5006 320.9249,-204.1077 327.8909,-204.7965"/>
<text text-anchor="middle" x="313.8123" y="-217.3015" font-family="Times,serif" font-size="14.00" fill="#000000">S(b)</text>
</g>
<!-- LR_6&#45;&gt;LR_5 -->
<g id="edge10" class="edge">
<title>LR_6&#45;&gt;LR_5</title>
<path fill="none" stroke="#000000" d="M340.9864,-152.6446C358.7287,-143.761 382.0984,-132.0596 401.4135,-122.3885"/>
<polygon fill="#000000" stroke="#000000" points="403.1526,-125.432 410.5274,-117.8252 400.0186,-119.1728 403.1526,-125.432"/>
<text text-anchor="middle" x="377.7252" y="-141.0507" font-family="Times,serif" font-size="14.00" fill="#000000">S(a)</text>
</g>
<!-- LR_5&#45;&gt;LR_5 -->
<g id="edge8" class="edge">
<title>LR_5&#45;&gt;LR_5</title>
<path fill="none" stroke="#000000" d="M426.8055,-132.5006C426.3241,-143.4231 429.9349,-152.5015 437.6381,-152.5015 442.6932,-152.5015 445.986,-148.5917 447.5164,-142.8168"/>
<polygon fill="#000000" stroke="#000000" points="451.0346,-142.7805 448.4706,-132.5006 444.0644,-142.1357 451.0346,-142.7805"/>
<text text-anchor="middle" x="437.6381" y="-155.3015" font-family="Times,serif" font-size="14.00" fill="#000000">S(a)</text>
</g>
<!-- LR_7 -->
<g id="node9" class="node">
<title>LR_7</title>
<ellipse fill="none" stroke="#000000" cx="558.2499" cy="-81.2507" rx="30.0035" ry="30.0035"/>
<text text-anchor="middle" x="558.2499" y="-77.0507" font-family="Times,serif" font-size="14.00" fill="#000000">LR_7</text>
</g>
<!-- LR_5&#45;&gt;LR_7 -->
<g id="edge7" class="edge">
<title>LR_5&#45;&gt;LR_7</title>
<path fill="none" stroke="#000000" d="M467.4522,-98.5654C482.8188,-95.635 501.7699,-92.0212 518.3766,-88.8544"/>
<polygon fill="#000000" stroke="#000000" points="519.1934,-92.2618 528.3607,-86.9505 517.8821,-85.3857 519.1934,-92.2618"/>
<text text-anchor="middle" x="497.944" y="-98.0507" font-family="Times,serif" font-size="14.00" fill="#000000">S(b)</text>
</g>
<!-- LR_7&#45;&gt;LR_8 -->
<g id="edge11" class="edge">
<title>LR_7&#45;&gt;LR_8</title>
<path fill="none" stroke="#000000" d="M585.0823,-95.2734C598.7293,-102.4227 615.5691,-111.271 630.611,-119.2507 634.8216,-121.4844 639.2187,-123.8263 643.5971,-126.1641"/>
<polygon fill="#000000" stroke="#000000" points="642.0236,-129.2917 652.4924,-130.9212 645.3247,-123.1189 642.0236,-129.2917"/>
<text text-anchor="middle" x="618.5558" y="-122.0507" font-family="Times,serif" font-size="14.00" fill="#000000">S(b)</text>
</g>
<!-- LR_7&#45;&gt;LR_5 -->
<g id="edge12" class="edge">
<title>LR_7&#45;&gt;LR_5</title>
<path fill="none" stroke="#000000" d="M528.9184,-72.851C515.5757,-70.3348 499.7141,-69.1922 485.8888,-73.2507 480.5149,-74.8283 475.173,-77.2093 470.1086,-79.9644"/>
<polygon fill="#000000" stroke="#000000" points="468.1107,-77.0817 461.3452,-85.2351 471.7186,-83.0803 468.1107,-77.0817"/>
<text text-anchor="middle" x="497.944" y="-76.0507" font-family="Times,serif" font-size="14.00" fill="#000000">S(a)</text>
</g>
</g>
</svg>
