<?xml version="1.0" encoding="UTF-8" standalone="no"?>
<!DOCTYPE svg PUBLIC "-//W3C//DTD SVG 1.1//EN"
 "http://www.w3.org/Graphics/SVG/1.1/DTD/svg11.dtd">
<!-- Generated by graphviz version 2.44.1 (20200629.0846)
 -->
<!-- Pages: 1 -->
<svg width="393pt" height="1152pt"
 viewBox="0.00 0.00 393.40 1152.00" xmlns="http://www.w3.org/2000/svg" xmlns:xlink="http://www.w3.org/1999/xlink">
<g id="graph0" class="graph" transform="scale(0.9 0.9) rotate(0) translate(4 1282)">
<polygon fill="white" stroke="transparent" points="-4,4 -4,-1282 435.16,-1282 435.16,4 -4,4"/>
<!-- Addam&#45;Marbrand -->
<g id="node1" class="node">
<title>Addam&#45;Marbrand</title>
<ellipse fill="none" stroke="black" cx="114.39" cy="-747" rx="75.29" ry="18"/>
<text text-anchor="middle" x="114.39" y="-743.3" font-family="Times,serif" font-size="14.00">Addam&#45;Marbrand</text>
</g>
<!-- Brynden&#45;Tully -->
<g id="node2" class="node">
<title>Brynden&#45;Tully</title>
<ellipse fill="none" stroke="black" cx="347.97" cy="-1044" rx="63.09" ry="18"/>
<text text-anchor="middle" x="347.97" y="-1040.3" font-family="Times,serif" font-size="14.00">Brynden&#45;Tully</text>
</g>
<!-- Addam&#45;Marbrand&#45;&#45;Brynden&#45;Tully -->
<g id="edge1" class="edge">
<title>Addam&#45;Marbrand&#45;&#45;Brynden&#45;Tully</title>
<path fill="none" stroke="black" d="M120.32,-765.12C134.4,-813.4 179.35,-946.29 264.78,-1017 273.69,-1024.37 284.67,-1029.76 295.68,-1033.67"/>
</g>
<!-- Cersei&#45;Lannister -->
<g id="node3" class="node">
<title>Cersei&#45;Lannister</title>
<ellipse fill="none" stroke="black" cx="347.97" cy="-990" rx="69.59" ry="18"/>
<text text-anchor="middle" x="347.97" y="-986.3" font-family="Times,serif" font-size="14.00">Cersei&#45;Lannister</text>
</g>
<!-- Addam&#45;Marbrand&#45;&#45;Cersei&#45;Lannister -->
<g id="edge2" class="edge">
<title>Addam&#45;Marbrand&#45;&#45;Cersei&#45;Lannister</title>
<path fill="none" stroke="black" d="M122.95,-765.03C141.14,-806.28 191.36,-908.16 264.78,-963 273.56,-969.56 284.02,-974.58 294.48,-978.39"/>
</g>
<!-- Gyles&#45;Rosby -->
<g id="node4" class="node">
<title>Gyles&#45;Rosby</title>
<ellipse fill="none" stroke="black" cx="347.97" cy="-936" rx="56.59" ry="18"/>
<text text-anchor="middle" x="347.97" y="-932.3" font-family="Times,serif" font-size="14.00">Gyles&#45;Rosby</text>
</g>
<!-- Addam&#45;Marbrand&#45;&#45;Gyles&#45;Rosby -->
<g id="edge3" class="edge">
<title>Addam&#45;Marbrand&#45;&#45;Gyles&#45;Rosby</title>
<path fill="none" stroke="black" d="M127.15,-764.86C149.86,-798.01 203,-869.26 264.78,-909 275.9,-916.15 289.08,-921.58 301.6,-925.62"/>
</g>
<!-- Jaime&#45;Lannister -->
<g id="node5" class="node">
<title>Jaime&#45;Lannister</title>
<ellipse fill="none" stroke="black" cx="347.97" cy="-882" rx="67.69" ry="18"/>
<text text-anchor="middle" x="347.97" y="-878.3" font-family="Times,serif" font-size="14.00">Jaime&#45;Lannister</text>
</g>
<!-- Addam&#45;Marbrand&#45;&#45;Jaime&#45;Lannister -->
<g id="edge4" class="edge">
<title>Addam&#45;Marbrand&#45;&#45;Jaime&#45;Lannister</title>
<path fill="none" stroke="black" d="M135.34,-764.55C162.81,-787.96 214.6,-829.41 264.78,-855 275.75,-860.6 288.13,-865.38 299.88,-869.29"/>
</g>
<!-- Jalabhar&#45;Xho -->
<g id="node6" class="node">
<title>Jalabhar&#45;Xho</title>
<ellipse fill="none" stroke="black" cx="347.97" cy="-828" rx="57.69" ry="18"/>
<text text-anchor="middle" x="347.97" y="-824.3" font-family="Times,serif" font-size="14.00">Jalabhar&#45;Xho</text>
</g>
<!-- Addam&#45;Marbrand&#45;&#45;Jalabhar&#45;Xho -->
<g id="edge5" class="edge">
<title>Addam&#45;Marbrand&#45;&#45;Jalabhar&#45;Xho</title>
<path fill="none" stroke="black" d="M156.17,-762.11C186.14,-773.12 227.89,-788.28 264.78,-801 278.55,-805.75 293.69,-810.78 307.18,-815.19"/>
</g>
<!-- Joffrey&#45;Baratheon -->
<g id="node7" class="node">
<title>Joffrey&#45;Baratheon</title>
<ellipse fill="none" stroke="black" cx="347.97" cy="-774" rx="74.99" ry="18"/>
<text text-anchor="middle" x="347.97" y="-770.3" font-family="Times,serif" font-size="14.00">Joffrey&#45;Baratheon</text>
</g>
<!-- Addam&#45;Marbrand&#45;&#45;Joffrey&#45;Baratheon -->
<g id="edge6" class="edge">
<title>Addam&#45;Marbrand&#45;&#45;Joffrey&#45;Baratheon</title>
<path fill="none" stroke="black" d="M182.37,-754.81C213.1,-758.39 249.43,-762.63 280.14,-766.21"/>
</g>
<!-- Kevan&#45;Lannister -->
<g id="node8" class="node">
<title>Kevan&#45;Lannister</title>
<ellipse fill="none" stroke="black" cx="347.97" cy="-720" rx="69.59" ry="18"/>
<text text-anchor="middle" x="347.97" y="-716.3" font-family="Times,serif" font-size="14.00">Kevan&#45;Lannister</text>
</g>
<!-- Addam&#45;Marbrand&#45;&#45;Kevan&#45;Lannister -->
<g id="edge7" class="edge">
<title>Addam&#45;Marbrand&#45;&#45;Kevan&#45;Lannister</title>
<path fill="none" stroke="black" d="M182.37,-739.19C214.43,-735.45 252.6,-731 284.11,-727.33"/>
</g>
<!-- Lyle&#45;Crakehall -->
<g id="node9" class="node">
<title>Lyle&#45;Crakehall</title>
<ellipse fill="none" stroke="black" cx="347.97" cy="-666" rx="63.89" ry="18"/>
<text text-anchor="middle" x="347.97" y="-662.3" font-family="Times,serif" font-size="14.00">Lyle&#45;Crakehall</text>
</g>
<!-- Addam&#45;Marbrand&#45;&#45;Lyle&#45;Crakehall -->
<g id="edge8" class="edge">
<title>Addam&#45;Marbrand&#45;&#45;Lyle&#45;Crakehall</title>
<path fill="none" stroke="black" d="M156.17,-731.89C186.14,-720.88 227.89,-705.72 264.78,-693 277.84,-688.49 292.13,-683.74 305.08,-679.5"/>
</g>
<!-- Oberyn&#45;Martell -->
<g id="node10" class="node">
<title>Oberyn&#45;Martell</title>
<ellipse fill="none" stroke="black" cx="347.97" cy="-612" rx="66.09" ry="18"/>
<text text-anchor="middle" x="347.97" y="-608.3" font-family="Times,serif" font-size="14.00">Oberyn&#45;Martell</text>
</g>
<!-- Addam&#45;Marbrand&#45;&#45;Oberyn&#45;Martell -->
<g id="edge9" class="edge">
<title>Addam&#45;Marbrand&#45;&#45;Oberyn&#45;Martell</title>
<path fill="none" stroke="black" d="M135.34,-729.45C162.81,-706.04 214.6,-664.59 264.78,-639 275.88,-633.34 288.43,-628.51 300.31,-624.57"/>
</g>
<!-- Tyrion&#45;Lannister -->
<g id="node11" class="node">
<title>Tyrion&#45;Lannister</title>
<ellipse fill="none" stroke="black" cx="347.97" cy="-450" rx="70.69" ry="18"/>
<text text-anchor="middle" x="347.97" y="-446.3" font-family="Times,serif" font-size="14.00">Tyrion&#45;Lannister</text>
</g>
<!-- Addam&#45;Marbrand&#45;&#45;Tyrion&#45;Lannister -->
<g id="edge10" class="edge">
<title>Addam&#45;Marbrand&#45;&#45;Tyrion&#45;Lannister</title>
<path fill="none" stroke="black" d="M120.32,-728.88C134.4,-680.6 179.35,-547.71 264.78,-477 272.88,-470.3 282.69,-465.24 292.68,-461.43"/>
</g>
<!-- Tywin&#45;Lannister -->
<g id="node12" class="node">
<title>Tywin&#45;Lannister</title>
<ellipse fill="none" stroke="black" cx="347.97" cy="-558" rx="69.59" ry="18"/>
<text text-anchor="middle" x="347.97" y="-554.3" font-family="Times,serif" font-size="14.00">Tywin&#45;Lannister</text>
</g>
<!-- Addam&#45;Marbrand&#45;&#45;Tywin&#45;Lannister -->
<g id="edge11" class="edge">
<title>Addam&#45;Marbrand&#45;&#45;Tywin&#45;Lannister</title>
<path fill="none" stroke="black" d="M127.15,-729.14C149.86,-695.99 203,-624.74 264.78,-585 274.38,-578.82 285.52,-573.94 296.45,-570.11"/>
</g>
<!-- Varys -->
<g id="node13" class="node">
<title>Varys</title>
<ellipse fill="none" stroke="black" cx="347.97" cy="-504" rx="30.59" ry="18"/>
<text text-anchor="middle" x="347.97" y="-500.3" font-family="Times,serif" font-size="14.00">Varys</text>
</g>
<!-- Addam&#45;Marbrand&#45;&#45;Varys -->
<g id="edge12" class="edge">
<title>Addam&#45;Marbrand&#45;&#45;Varys</title>
<path fill="none" stroke="black" d="M122.95,-728.97C141.14,-687.72 191.36,-585.84 264.78,-531 280.42,-519.32 301.37,-512.54 318.21,-508.69"/>
</g>
<!-- Aegon&#45;Frey&#45;(son&#45;of&#45;Stevron) -->
<g id="node14" class="node">
<title>Aegon&#45;Frey&#45;(son&#45;of&#45;Stevron)</title>
<ellipse fill="none" stroke="black" cx="114.39" cy="-1179" rx="114.28" ry="18"/>
<text text-anchor="middle" x="114.39" y="-1175.3" font-family="Times,serif" font-size="14.00">Aegon&#45;Frey&#45;(son&#45;of&#45;Stevron)</text>
</g>
<!-- Catelyn&#45;Stark -->
<g id="node15" class="node">
<title>Catelyn&#45;Stark</title>
<ellipse fill="none" stroke="black" cx="347.97" cy="-1260" rx="59.59" ry="18"/>
<text text-anchor="middle" x="347.97" y="-1256.3" font-family="Times,serif" font-size="14.00">Catelyn&#45;Stark</text>
</g>
<!-- Aegon&#45;Frey&#45;(son&#45;of&#45;Stevron)&#45;&#45;Catelyn&#45;Stark -->
<g id="edge13" class="edge">
<title>Aegon&#45;Frey&#45;(son&#45;of&#45;Stevron)&#45;&#45;Catelyn&#45;Stark</title>
<path fill="none" stroke="black" d="M160.05,-1195.53C189.67,-1206.4 229.45,-1220.82 264.78,-1233 278.27,-1237.65 293.07,-1242.57 306.34,-1246.92"/>
</g>
<!-- Robb&#45;Stark -->
<g id="node16" class="node">
<title>Robb&#45;Stark</title>
<ellipse fill="none" stroke="black" cx="347.97" cy="-1206" rx="51.19" ry="18"/>
<text text-anchor="middle" x="347.97" y="-1202.3" font-family="Times,serif" font-size="14.00">Robb&#45;Stark</text>
</g>
<!-- Aegon&#45;Frey&#45;(son&#45;of&#45;Stevron)&#45;&#45;Robb&#45;Stark -->
<g id="edge14" class="edge">
<title>Aegon&#45;Frey&#45;(son&#45;of&#45;Stevron)&#45;&#45;Robb&#45;Stark</title>
<path fill="none" stroke="black" d="M206.92,-1189.67C238.4,-1193.34 272.38,-1197.3 298.99,-1200.41"/>
</g>
<!-- Stevron&#45;Frey -->
<g id="node17" class="node">
<title>Stevron&#45;Frey</title>
<ellipse fill="none" stroke="black" cx="347.97" cy="-1152" rx="57.39" ry="18"/>
<text text-anchor="middle" x="347.97" y="-1148.3" font-family="Times,serif" font-size="14.00">Stevron&#45;Frey</text>
</g>
<!-- Aegon&#45;Frey&#45;(son&#45;of&#45;Stevron)&#45;&#45;Stevron&#45;Frey -->
<g id="edge15" class="edge">
<title>Aegon&#45;Frey&#45;(son&#45;of&#45;Stevron)&#45;&#45;Stevron&#45;Frey</title>
<path fill="none" stroke="black" d="M206.92,-1168.33C236.5,-1164.88 268.3,-1161.17 294.11,-1158.16"/>
</g>
<!-- Walder&#45;Frey -->
<g id="node18" class="node">
<title>Walder&#45;Frey</title>
<ellipse fill="none" stroke="black" cx="347.97" cy="-1098" rx="55.79" ry="18"/>
<text text-anchor="middle" x="347.97" y="-1094.3" font-family="Times,serif" font-size="14.00">Walder&#45;Frey</text>
</g>
<!-- Aegon&#45;Frey&#45;(son&#45;of&#45;Stevron)&#45;&#45;Walder&#45;Frey -->
<g id="edge16" class="edge">
<title>Aegon&#45;Frey&#45;(son&#45;of&#45;Stevron)&#45;&#45;Walder&#45;Frey</title>
<path fill="none" stroke="black" d="M160.05,-1162.47C189.67,-1151.6 229.45,-1137.18 264.78,-1125 278.69,-1120.2 294,-1115.12 307.59,-1110.67"/>
</g>
<!-- Aegon&#45;I&#45;Targaryen -->
<g id="node19" class="node">
<title>Aegon&#45;I&#45;Targaryen</title>
<ellipse fill="none" stroke="black" cx="114.39" cy="-234" rx="79.09" ry="18"/>
<text text-anchor="middle" x="114.39" y="-230.3" font-family="Times,serif" font-size="14.00">Aegon&#45;I&#45;Targaryen</text>
</g>
<!-- Aegon&#45;I&#45;Targaryen&#45;&#45;Tyrion&#45;Lannister -->
<g id="edge24" class="edge">
<title>Aegon&#45;I&#45;Targaryen&#45;&#45;Tyrion&#45;Lannister</title>
<path fill="none" stroke="black" d="M124.77,-251.97C145.18,-289.33 197.23,-375.82 264.78,-423 273.77,-429.28 284.31,-434.17 294.8,-437.96"/>
</g>
<!-- Daenerys&#45;Targaryen -->
<g id="node20" class="node">
<title>Daenerys&#45;Targaryen</title>
<ellipse fill="none" stroke="black" cx="347.97" cy="-396" rx="83.39" ry="18"/>
<text text-anchor="middle" x="347.97" y="-392.3" font-family="Times,serif" font-size="14.00">Daenerys&#45;Targaryen</text>
</g>
<!-- Aegon&#45;I&#45;Targaryen&#45;&#45;Daenerys&#45;Targaryen -->
<g id="edge17" class="edge">
<title>Aegon&#45;I&#45;Targaryen&#45;&#45;Daenerys&#45;Targaryen</title>
<path fill="none" stroke="black" d="M130.58,-251.9C155.74,-280.48 208.86,-336.52 264.78,-369 273.74,-374.2 283.84,-378.56 293.82,-382.16"/>
</g>
<!-- Eddard&#45;Stark -->
<g id="node21" class="node">
<title>Eddard&#45;Stark</title>
<ellipse fill="none" stroke="black" cx="347.97" cy="-342" rx="57.69" ry="18"/>
<text text-anchor="middle" x="347.97" y="-338.3" font-family="Times,serif" font-size="14.00">Eddard&#45;Stark</text>
</g>
<!-- Aegon&#45;I&#45;Targaryen&#45;&#45;Eddard&#45;Stark -->
<g id="edge18" class="edge">
<title>Aegon&#45;I&#45;Targaryen&#45;&#45;Eddard&#45;Stark</title>
<path fill="none" stroke="black" d="M143,-250.93C172.43,-268.5 220.76,-296.02 264.78,-315 277.61,-320.53 291.96,-325.61 305.04,-329.83"/>
</g>
<!-- Harren&#45;Hoare -->
<g id="node22" class="node">
<title>Harren&#45;Hoare</title>
<ellipse fill="none" stroke="black" cx="347.97" cy="-288" rx="59.59" ry="18"/>
<text text-anchor="middle" x="347.97" y="-284.3" font-family="Times,serif" font-size="14.00">Harren&#45;Hoare</text>
</g>
<!-- Aegon&#45;I&#45;Targaryen&#45;&#45;Harren&#45;Hoare -->
<g id="edge19" class="edge">
<title>Aegon&#45;I&#45;Targaryen&#45;&#45;Harren&#45;Hoare</title>
<path fill="none" stroke="black" d="M170.27,-246.8C209.86,-256.03 262.74,-268.36 300.3,-277.12"/>
</g>
<!-- Nan -->
<g id="node23" class="node">
<title>Nan</title>
<ellipse fill="none" stroke="black" cx="347.97" cy="-234" rx="27" ry="18"/>
<text text-anchor="middle" x="347.97" y="-230.3" font-family="Times,serif" font-size="14.00">Nan</text>
</g>
<!-- Aegon&#45;I&#45;Targaryen&#45;&#45;Nan -->
<g id="edge20" class="edge">
<title>Aegon&#45;I&#45;Targaryen&#45;&#45;Nan</title>
<path fill="none" stroke="black" d="M193.79,-234C237.88,-234 290.07,-234 320.74,-234"/>
</g>
<!-- Rhaenys&#45;Targaryen -->
<g id="node24" class="node">
<title>Rhaenys&#45;Targaryen</title>
<ellipse fill="none" stroke="black" cx="347.97" cy="-180" rx="79.89" ry="18"/>
<text text-anchor="middle" x="347.97" y="-176.3" font-family="Times,serif" font-size="14.00">Rhaenys&#45;Targaryen</text>
</g>
<!-- Aegon&#45;I&#45;Targaryen&#45;&#45;Rhaenys&#45;Targaryen -->
<g id="edge21" class="edge">
<title>Aegon&#45;I&#45;Targaryen&#45;&#45;Rhaenys&#45;Targaryen</title>
<path fill="none" stroke="black" d="M170.27,-221.2C206.92,-212.66 254.95,-201.46 291.68,-192.89"/>
</g>
<!-- Stannis&#45;Baratheon -->
<g id="node25" class="node">
<title>Stannis&#45;Baratheon</title>
<ellipse fill="none" stroke="black" cx="347.97" cy="-126" rx="75.29" ry="18"/>
<text text-anchor="middle" x="347.97" y="-122.3" font-family="Times,serif" font-size="14.00">Stannis&#45;Baratheon</text>
</g>
<!-- Aegon&#45;I&#45;Targaryen&#45;&#45;Stannis&#45;Baratheon -->
<g id="edge22" class="edge">
<title>Aegon&#45;I&#45;Targaryen&#45;&#45;Stannis&#45;Baratheon</title>
<path fill="none" stroke="black" d="M143,-217.07C172.43,-199.5 220.76,-171.98 264.78,-153 275.81,-148.24 287.98,-143.82 299.49,-139.99"/>
</g>
<!-- Torrhen&#45;Stark -->
<g id="node26" class="node">
<title>Torrhen&#45;Stark</title>
<ellipse fill="none" stroke="black" cx="347.97" cy="-72" rx="60.39" ry="18"/>
<text text-anchor="middle" x="347.97" y="-68.3" font-family="Times,serif" font-size="14.00">Torrhen&#45;Stark</text>
</g>
<!-- Aegon&#45;I&#45;Targaryen&#45;&#45;Torrhen&#45;Stark -->
<g id="edge23" class="edge">
<title>Aegon&#45;I&#45;Targaryen&#45;&#45;Torrhen&#45;Stark</title>
<path fill="none" stroke="black" d="M130.58,-216.1C155.74,-187.52 208.86,-131.48 264.78,-99 275.82,-92.59 288.59,-87.46 300.72,-83.47"/>
</g>
<!-- Visenya&#45;Targaryen -->
<g id="node27" class="node">
<title>Visenya&#45;Targaryen</title>
<ellipse fill="none" stroke="black" cx="347.97" cy="-18" rx="78.79" ry="18"/>
<text text-anchor="middle" x="347.97" y="-14.3" font-family="Times,serif" font-size="14.00">Visenya&#45;Targaryen</text>
</g>
<!-- Aegon&#45;I&#45;Targaryen&#45;&#45;Visenya&#45;Targaryen -->
<g id="edge25" class="edge">
<title>Aegon&#45;I&#45;Targaryen&#45;&#45;Visenya&#45;Targaryen</title>
<path fill="none" stroke="black" d="M124.77,-216.03C145.18,-178.67 197.23,-92.18 264.78,-45 273.15,-39.15 282.88,-34.51 292.64,-30.84"/>
</g>
</g>
</svg>
