<?xml version="1.0" encoding="UTF-8" standalone="no"?>
<!DOCTYPE svg PUBLIC "-//W3C//DTD SVG 1.1//EN"
 "http://www.w3.org/Graphics/SVG/1.1/DTD/svg11.dtd">
<!-- Generated by graphviz version 2.44.1 (20200629.0846)
 -->
<!-- Pages: 1 -->
<svg width="280pt" height="476pt"
 viewBox="0.00 0.00 279.74 476.00" xmlns="http://www.w3.org/2000/svg" xmlns:xlink="http://www.w3.org/1999/xlink">
<g id="graph0" class="graph" transform="scale(1 1) rotate(0) translate(4 472)">
<polygon fill="white" stroke="transparent" points="-4,4 -4,-472 275.74,-472 275.74,4 -4,4"/>
<!-- run -->
<g id="node1" class="node">
<title>run</title>
<ellipse fill="none" stroke="black" cx="84.25" cy="-450" rx="27" ry="18"/>
<text text-anchor="middle" x="84.25" y="-446.3" font-family="Times,serif" font-size="14.00">run</text>
</g>
<!-- intr -->
<g id="node2" class="node">
<title>intr</title>
<ellipse fill="none" stroke="black" cx="29.25" cy="-378" rx="27" ry="18"/>
<text text-anchor="middle" x="29.25" y="-374.3" font-family="Times,serif" font-size="14.00">intr</text>
</g>
<!-- run&#45;&#45;intr -->
<g id="edge1" class="edge">
<title>run&#45;&#45;intr</title>
<path fill="none" stroke="black" d="M72.31,-433.81C63.09,-422.07 50.38,-405.89 41.16,-394.16"/>
</g>
<!-- kernel -->
<g id="node4" class="node">
<title>kernel</title>
<ellipse fill="none" stroke="black" cx="170.25" cy="-378" rx="32.49" ry="18"/>
<text text-anchor="middle" x="170.25" y="-374.3" font-family="Times,serif" font-size="14.00">kernel</text>
</g>
<!-- run&#45;&#45;kernel -->
<g id="edge4" class="edge">
<title>run&#45;&#45;kernel</title>
<path fill="none" stroke="black" d="M100.83,-435.5C115.67,-423.43 137.36,-405.77 152.53,-393.42"/>
</g>
<!-- runbl -->
<g id="node3" class="node">
<title>runbl</title>
<ellipse fill="none" stroke="black" cx="29.25" cy="-306" rx="29.5" ry="18"/>
<text text-anchor="middle" x="29.25" y="-302.3" font-family="Times,serif" font-size="14.00">runbl</text>
</g>
<!-- intr&#45;&#45;runbl -->
<g id="edge2" class="edge">
<title>intr&#45;&#45;runbl</title>
<path fill="none" stroke="black" d="M29.25,-359.7C29.25,-348.85 29.25,-334.92 29.25,-324.1"/>
</g>
<!-- runbl&#45;&#45;run -->
<g id="edge3" class="edge">
<title>runbl&#45;&#45;run</title>
<path fill="none" stroke="black" d="M42,-322.3C49.81,-332.41 59.4,-346.29 65.25,-360 75.42,-383.83 80.36,-413.65 82.59,-432.01"/>
</g>
<!-- zombie -->
<g id="node5" class="node">
<title>zombie</title>
<ellipse fill="none" stroke="black" cx="113.25" cy="-306" rx="37.09" ry="18"/>
<text text-anchor="middle" x="113.25" y="-302.3" font-family="Times,serif" font-size="14.00">zombie</text>
</g>
<!-- kernel&#45;&#45;zombie -->
<g id="edge5" class="edge">
<title>kernel&#45;&#45;zombie</title>
<path fill="none" stroke="black" d="M157.31,-361.12C148.12,-349.82 135.8,-334.7 126.53,-323.31"/>
</g>
<!-- sleep -->
<g id="node6" class="node">
<title>sleep</title>
<ellipse fill="none" stroke="black" cx="197.25" cy="-306" rx="28.7" ry="18"/>
<text text-anchor="middle" x="197.25" y="-302.3" font-family="Times,serif" font-size="14.00">sleep</text>
</g>
<!-- kernel&#45;&#45;sleep -->
<g id="edge6" class="edge">
<title>kernel&#45;&#45;sleep</title>
<path fill="none" stroke="black" d="M176.78,-360.05C181.03,-349.05 186.54,-334.76 190.77,-323.79"/>
</g>
<!-- runmem -->
<g id="node7" class="node">
<title>runmem</title>
<ellipse fill="none" stroke="black" cx="188.25" cy="-18" rx="40.89" ry="18"/>
<text text-anchor="middle" x="188.25" y="-14.3" font-family="Times,serif" font-size="14.00">runmem</text>
</g>
<!-- kernel&#45;&#45;runmem -->
<g id="edge7" class="edge">
<title>kernel&#45;&#45;runmem</title>
<path fill="none" stroke="black" d="M191.04,-364.11C205.1,-354.51 223.23,-340.29 235.25,-324 260.58,-289.66 271.25,-277.67 271.25,-235 271.25,-235 271.25,-235 271.25,-161 271.25,-120.55 273.21,-106.59 252.25,-72 242.38,-55.71 225.67,-42.13 211.8,-32.79"/>
</g>
<!-- sleep&#45;&#45;runmem -->
<g id="edge13" class="edge">
<title>sleep&#45;&#45;runmem</title>
<path fill="none" stroke="black" d="M183.48,-289.94C175.11,-279.91 164.97,-266.05 159.25,-252 147.04,-222.02 150.7,-212.28 148.25,-180 147.04,-164.05 145.78,-159.81 148.25,-144 154.47,-104.15 171.21,-59.65 180.95,-35.98"/>
</g>
<!-- swap -->
<g id="node8" class="node">
<title>swap</title>
<ellipse fill="none" stroke="black" cx="197.25" cy="-234" rx="28.7" ry="18"/>
<text text-anchor="middle" x="197.25" y="-230.3" font-family="Times,serif" font-size="14.00">swap</text>
</g>
<!-- sleep&#45;&#45;swap -->
<g id="edge8" class="edge">
<title>sleep&#45;&#45;swap</title>
<path fill="none" stroke="black" d="M197.25,-287.7C197.25,-276.85 197.25,-262.92 197.25,-252.1"/>
</g>
<!-- runswap -->
<g id="node9" class="node">
<title>runswap</title>
<ellipse fill="none" stroke="black" cx="197.25" cy="-162" rx="40.09" ry="18"/>
<text text-anchor="middle" x="197.25" y="-158.3" font-family="Times,serif" font-size="14.00">runswap</text>
</g>
<!-- swap&#45;&#45;runswap -->
<g id="edge9" class="edge">
<title>swap&#45;&#45;runswap</title>
<path fill="none" stroke="black" d="M197.25,-215.7C197.25,-204.85 197.25,-190.92 197.25,-180.1"/>
</g>
<!-- runswap&#45;&#45;runmem -->
<g id="edge11" class="edge">
<title>runswap&#45;&#45;runmem</title>
<path fill="none" stroke="black" d="M190.36,-144.14C186.54,-133.88 182.19,-120.41 180.25,-108 176.36,-83.17 180.6,-54.13 184.23,-36.14"/>
</g>
<!-- new -->
<g id="node10" class="node">
<title>new</title>
<ellipse fill="none" stroke="black" cx="216.25" cy="-90" rx="27" ry="18"/>
<text text-anchor="middle" x="216.25" y="-86.3" font-family="Times,serif" font-size="14.00">new</text>
</g>
<!-- runswap&#45;&#45;new -->
<g id="edge10" class="edge">
<title>runswap&#45;&#45;new</title>
<path fill="none" stroke="black" d="M201.85,-144.05C204.83,-133.05 208.71,-118.76 211.69,-107.79"/>
</g>
<!-- new&#45;&#45;runmem -->
<g id="edge12" class="edge">
<title>new&#45;&#45;runmem</title>
<path fill="none" stroke="black" d="M209.61,-72.41C205.21,-61.41 199.46,-47.03 195.03,-35.96"/>
</g>
</g>
</svg>
