<?xml version="1.0" encoding="UTF-8" standalone="no"?>
<!DOCTYPE svg PUBLIC "-//W3C//DTD SVG 1.1//EN"
 "http://www.w3.org/Graphics/SVG/1.1/DTD/svg11.dtd">
<!-- Generated by graphviz version 2.40.1 (20161225.0304)
 -->
<!-- Title: %3 Pages: 1 -->
<svg width="318pt" height="476pt"
 viewBox="0.00 0.00 317.99 476.00" xmlns="http://www.w3.org/2000/svg" xmlns:xlink="http://www.w3.org/1999/xlink">
<g id="graph0" class="graph" transform="scale(1 1) rotate(0) translate(4 472)">
<title>%3</title>
<polygon fill="#ffffff" stroke="transparent" points="-4,4 -4,-472 313.99,-472 313.99,4 -4,4"/>
<!-- run -->
<g id="node1" class="node">
<title>run</title>
<ellipse fill="none" stroke="#000000" cx="91.7468" cy="-450" rx="27" ry="18"/>
<text text-anchor="middle" x="91.7468" y="-446.3" font-family="Times,serif" font-size="14.00" fill="#000000">run</text>
</g>
<!-- intr -->
<g id="node2" class="node">
<title>intr</title>
<ellipse fill="none" stroke="#000000" cx="35.7468" cy="-378" rx="27.8951" ry="18"/>
<text text-anchor="middle" x="35.7468" y="-374.3" font-family="Times,serif" font-size="14.00" fill="#000000">intr</text>
</g>
<!-- run&#45;&#45;intr -->
<g id="edge1" class="edge">
<title>run&#45;&#45;intr</title>
<path fill="none" stroke="#000000" d="M79.0396,-433.6621C69.8748,-421.8788 57.557,-406.0416 48.4038,-394.2733"/>
</g>
<!-- kernel -->
<g id="node4" class="node">
<title>kernel</title>
<ellipse fill="none" stroke="#000000" cx="194.7468" cy="-378" rx="40.0939" ry="18"/>
<text text-anchor="middle" x="194.7468" y="-374.3" font-family="Times,serif" font-size="14.00" fill="#000000">kernel</text>
</g>
<!-- run&#45;&#45;kernel -->
<g id="edge4" class="edge">
<title>run&#45;&#45;kernel</title>
<path fill="none" stroke="#000000" d="M110.6386,-436.7941C128.1778,-424.5337 154.2888,-406.2814 172.7574,-393.3713"/>
</g>
<!-- runbl -->
<g id="node3" class="node">
<title>runbl</title>
<ellipse fill="none" stroke="#000000" cx="35.7468" cy="-306" rx="35.9954" ry="18"/>
<text text-anchor="middle" x="35.7468" y="-302.3" font-family="Times,serif" font-size="14.00" fill="#000000">runbl</text>
</g>
<!-- intr&#45;&#45;runbl -->
<g id="edge2" class="edge">
<title>intr&#45;&#45;runbl</title>
<path fill="none" stroke="#000000" d="M35.7468,-359.8314C35.7468,-349 35.7468,-335.2876 35.7468,-324.4133"/>
</g>
<!-- runbl&#45;&#45;run -->
<g id="edge3" class="edge">
<title>runbl&#45;&#45;run</title>
<path fill="none" stroke="#000000" d="M49.9543,-322.97C57.7734,-333.1266 67.0234,-346.6266 72.7468,-360 82.8628,-383.637 87.7697,-413.1402 90.0185,-431.782"/>
</g>
<!-- zombie -->
<g id="node5" class="node">
<title>zombie</title>
<ellipse fill="none" stroke="#000000" cx="133.7468" cy="-306" rx="44.393" ry="18"/>
<text text-anchor="middle" x="133.7468" y="-302.3" font-family="Times,serif" font-size="14.00" fill="#000000">zombie</text>
</g>
<!-- kernel&#45;&#45;zombie -->
<g id="edge5" class="edge">
<title>kernel&#45;&#45;zombie</title>
<path fill="none" stroke="#000000" d="M180.2907,-360.937C170.7077,-349.626 158.1707,-334.8282 148.523,-323.4407"/>
</g>
<!-- sleep -->
<g id="node6" class="node">
<title>sleep</title>
<ellipse fill="none" stroke="#000000" cx="230.7468" cy="-306" rx="35.194" ry="18"/>
<text text-anchor="middle" x="230.7468" y="-302.3" font-family="Times,serif" font-size="14.00" fill="#000000">sleep</text>
</g>
<!-- kernel&#45;&#45;sleep -->
<g id="edge6" class="edge">
<title>kernel&#45;&#45;sleep</title>
<path fill="none" stroke="#000000" d="M203.6457,-360.2022C209.2259,-349.0419 216.3897,-334.7143 221.9503,-323.593"/>
</g>
<!-- runmem -->
<g id="node7" class="node">
<title>runmem</title>
<ellipse fill="none" stroke="#000000" cx="220.7468" cy="-18" rx="50.0912" ry="18"/>
<text text-anchor="middle" x="220.7468" y="-14.3" font-family="Times,serif" font-size="14.00" fill="#000000">runmem</text>
</g>
<!-- kernel&#45;&#45;runmem -->
<g id="edge7" class="edge">
<title>kernel&#45;&#45;runmem</title>
<path fill="none" stroke="#000000" d="M222.3885,-364.8508C239.4713,-355.5175 260.7334,-341.5446 274.7468,-324 301.5318,-290.4658 309.7468,-276.9182 309.7468,-234 309.7468,-234 309.7468,-234 309.7468,-162 309.7468,-120.9255 310.7194,-106.7033 288.7468,-72 278.5857,-55.9516 261.954,-42.6194 247.6828,-33.2174"/>
</g>
<!-- sleep&#45;&#45;runmem -->
<g id="edge13" class="edge">
<title>sleep&#45;&#45;runmem</title>
<path fill="none" stroke="#000000" d="M214.6976,-289.8172C205.536,-279.7199 194.5538,-266.0137 187.7468,-252 173.381,-222.4245 174.5501,-212.6592 170.7468,-180 168.8961,-164.1074 167.7426,-159.7154 170.7468,-144 178.4798,-103.5473 199.0054,-59.5212 211.2201,-35.7107"/>
</g>
<!-- swap -->
<g id="node8" class="node">
<title>swap</title>
<ellipse fill="none" stroke="#000000" cx="230.7468" cy="-234" rx="34.394" ry="18"/>
<text text-anchor="middle" x="230.7468" y="-230.3" font-family="Times,serif" font-size="14.00" fill="#000000">swap</text>
</g>
<!-- sleep&#45;&#45;swap -->
<g id="edge8" class="edge">
<title>sleep&#45;&#45;swap</title>
<path fill="none" stroke="#000000" d="M230.7468,-287.8314C230.7468,-277 230.7468,-263.2876 230.7468,-252.4133"/>
</g>
<!-- runswap -->
<g id="node9" class="node">
<title>runswap</title>
<ellipse fill="none" stroke="#000000" cx="230.7468" cy="-162" rx="50.8918" ry="18"/>
<text text-anchor="middle" x="230.7468" y="-158.3" font-family="Times,serif" font-size="14.00" fill="#000000">runswap</text>
</g>
<!-- swap&#45;&#45;runswap -->
<g id="edge9" class="edge">
<title>swap&#45;&#45;runswap</title>
<path fill="none" stroke="#000000" d="M230.7468,-215.8314C230.7468,-205 230.7468,-191.2876 230.7468,-180.4133"/>
</g>
<!-- runswap&#45;&#45;runmem -->
<g id="edge11" class="edge">
<title>runswap&#45;&#45;runmem</title>
<path fill="none" stroke="#000000" d="M222.2317,-143.9594C217.8489,-133.6742 212.9692,-120.3991 210.7468,-108 206.3091,-83.2407 211.3248,-54.2743 215.7106,-36.0312"/>
</g>
<!-- new -->
<g id="node10" class="node">
<title>new</title>
<ellipse fill="none" stroke="#000000" cx="249.7468" cy="-90" rx="29.795" ry="18"/>
<text text-anchor="middle" x="249.7468" y="-86.3" font-family="Times,serif" font-size="14.00" fill="#000000">new</text>
</g>
<!-- runswap&#45;&#45;new -->
<g id="edge10" class="edge">
<title>runswap&#45;&#45;new</title>
<path fill="none" stroke="#000000" d="M235.5413,-143.8314C238.4436,-132.8334 242.1297,-118.865 245.0197,-107.9134"/>
</g>
<!-- new&#45;&#45;runmem -->
<g id="edge12" class="edge">
<title>new&#45;&#45;runmem</title>
<path fill="none" stroke="#000000" d="M242.5783,-72.2022C238.1167,-61.1252 232.3984,-46.928 227.9334,-35.8425"/>
</g>
</g>
</svg>
